<?xml version="1.0" encoding="utf-8"?>
<!-- Generator: Adobe Illustrator 25.0.1, SVG Export Plug-In . SVG Version: 6.00 Build 0)  -->
<svg version="1.1" id="Layer_1" xmlns="http://www.w3.org/2000/svg" xmlns:xlink="http://www.w3.org/1999/xlink" x="0px" y="0px"
	 viewBox="0 0 130 70" style="enable-background:new 0 0 130 70;" xml:space="preserve">
<style type="text/css">
	.st0{fill-rule:evenodd;clip-rule:evenodd;fill:#7B7C7E;}
	.st1{fill-rule:evenodd;clip-rule:evenodd;fill:#E21E27;}
	.st2{fill-rule:evenodd;clip-rule:evenodd;fill:#BDBDB7;}
	.st3{fill-rule:evenodd;clip-rule:evenodd;fill:url(#SVGID_1_);}
	.st4{fill-rule:evenodd;clip-rule:evenodd;fill:url(#SVGID_2_);}
	.st5{fill-rule:evenodd;clip-rule:evenodd;fill:url(#SVGID_3_);}
	.st6{fill-rule:evenodd;clip-rule:evenodd;fill:url(#SVGID_4_);}
	.st7{opacity:0.67;fill-rule:evenodd;clip-rule:evenodd;fill:url(#SVGID_5_);}
	.st8{opacity:0.67;fill-rule:evenodd;clip-rule:evenodd;fill:url(#SVGID_6_);}
	.st9{opacity:0.67;fill-rule:evenodd;clip-rule:evenodd;fill:url(#SVGID_7_);}
	.st10{opacity:0.67;fill-rule:evenodd;clip-rule:evenodd;fill:url(#SVGID_8_);}
	.st11{opacity:0.67;fill-rule:evenodd;clip-rule:evenodd;fill:url(#SVGID_9_);}
	.st12{opacity:0.67;fill-rule:evenodd;clip-rule:evenodd;fill:url(#SVGID_10_);}
	.st13{opacity:0.67;fill-rule:evenodd;clip-rule:evenodd;fill:url(#SVGID_11_);}
	.st14{opacity:0.86;fill-rule:evenodd;clip-rule:evenodd;fill:url(#SVGID_12_);}
	.st15{fill-rule:evenodd;clip-rule:evenodd;}
	.st16{fill-rule:evenodd;clip-rule:evenodd;fill:url(#SVGID_13_);}
	.st17{fill-rule:evenodd;clip-rule:evenodd;fill:url(#SVGID_14_);}
	.st18{fill-rule:evenodd;clip-rule:evenodd;fill:url(#SVGID_15_);}
	.st19{fill-rule:evenodd;clip-rule:evenodd;fill:none;stroke:#A8A89D;stroke-width:0.3402;stroke-linecap:round;}
	.st20{fill-rule:evenodd;clip-rule:evenodd;fill:none;stroke:#C3C3BA;stroke-width:0.2361;stroke-linecap:round;}
	.st21{fill-rule:evenodd;clip-rule:evenodd;fill:none;stroke:#E1E0D9;stroke-width:0.1324;stroke-linecap:round;}
	.st22{fill-rule:evenodd;clip-rule:evenodd;fill:none;stroke:#FFFFFF;stroke-width:0.0283;stroke-linecap:round;}
	.st23{fill-rule:evenodd;clip-rule:evenodd;fill:url(#SVGID_16_);}
	.st24{fill-rule:evenodd;clip-rule:evenodd;fill:url(#SVGID_17_);}
	.st25{fill-rule:evenodd;clip-rule:evenodd;fill:#FFFFFF;}
	.st26{fill:#363639;}
	.st27{fill:url(#SVGID_18_);}
</style>
<path id="path12" class="st0" d="M96.92,47.33l-9.03-0.01l-0.02,1.85l8.47-0.01v5.15l-8.35-0.01l-0.01,1.83l8.94,0.01v5.48
	l-16.07,0.01l-0.02-19.63l16.1,0C96.93,42,96.92,47.33,96.92,47.33z M70.84,61.65l-0.02-6.86l-4.26,0.01v6.85l-6.8,0.01l0.01-19.71
	l6.7-0.01l0.04,6.76l4.26-0.01l-0.01-6.74l6.86-0.01v19.71H70.84z M30.71,61.55c0,0,0.06-19.64,0.03-19.71l7.84,0.01l0,19.7
	L30.71,61.55z M11.3,61.55l0.01-19.56l16-0.02l0,5.41l-9.06,0.01v1.86l8.42,0l-0.02,5.2l-8.4,0.01l0,1.87l9.11,0.01v5.21
	C27.36,61.56,11.3,61.55,11.3,61.55z M56.53,50.32C55.53,49.14,53.61,48,51.98,48c-2.16,0-3.93,1.64-3.93,3.8
	c0,2.19,1.87,3.8,4.04,3.8c1.66,0,3.33-1.17,4.49-2.3l0,7.26c-1.48,1.19-4.41,1.5-5.7,1.5c-5.67,0-10.1-4.4-10.1-10.08
	c0-5.8,4.56-10.44,10.39-10.44c1.64,0,3.76,0.41,5.4,1.22L56.53,50.32L56.53,50.32z M100.2,41.87h8.63c4.43,0,8.19,1.88,8.19,6.83
	c0,2.97-1.15,4.23-3.81,5.11v0.16c0.37,0.29,0.81,0.6,1.2,1.17l4.28,6.39h-8.24l-3.13-6.31h-0.13v6.31h-6.99
	C100.2,61.54,100.2,41.87,100.2,41.87z M107.19,50.59h0.5c1.17,0,2.35-0.18,2.35-1.64c0-1.51-1.07-1.7-2.3-1.7h-0.55V50.59z"/>
<g>
	<path id="path14" class="st1" d="M42.22,10.36l14.79,0c0.36,0,0.65,0.29,0.65,0.66c0,0.36-0.29,0.65-0.65,0.65l-14.79,0
		c-0.36,0-0.66-0.29-0.66-0.66C41.57,10.65,41.86,10.36,42.22,10.36z M49.95,15.53l11.43,0c0.36,0,0.66,0.29,0.66,0.66
		c0,0.36-0.29,0.66-0.66,0.66l-11.43,0c-0.36,0-0.65-0.29-0.65-0.66C49.3,15.82,49.59,15.53,49.95,15.53z M52.76,18.11l9.56,0
		c0.36,0,0.66,0.29,0.66,0.65c0,0.36-0.29,0.65-0.66,0.65l-9.56,0c-0.36,0-0.65-0.29-0.65-0.66S52.4,18.11,52.76,18.11z M55.2,20.7
		l7.52,0c0.36,0,0.66,0.29,0.66,0.65c0,0.36-0.29,0.66-0.66,0.66l-7.52,0c-0.36,0-0.65-0.29-0.65-0.65
		C54.55,20.99,54.84,20.7,55.2,20.7z M57.44,23.28l5.18,0c0.36,0,0.65,0.29,0.65,0.66c0,0.36-0.29,0.65-0.65,0.65l-5.18,0
		c-0.36,0-0.66-0.29-0.66-0.65C56.79,23.57,57.08,23.28,57.44,23.28z M59.53,25.86l2.52,0c0.36,0,0.66,0.29,0.66,0.65
		c0,0.36-0.29,0.65-0.66,0.65l-2.52,0c-0.36,0-0.66-0.29-0.66-0.65C58.87,26.16,59.16,25.86,59.53,25.86z M46.69,12.94l13.04,0
		c0.36,0,0.66,0.29,0.66,0.65c0,0.36-0.29,0.66-0.66,0.66l-13.04,0c-0.36,0-0.66-0.29-0.66-0.66S46.33,12.94,46.69,12.94z
		 M34.23,36.59c-7.96,0-14.41-6.45-14.41-14.41c0-7.96,6.45-14.41,14.41-14.41l16.48,0c0.36,0,0.66,0.29,0.66,0.65
		c0,0.36-0.29,0.66-0.66,0.66l-8.69,0c-0.68,0-1.98,0.26-2.66,0.55c-0.55,0.23-0.77,0.26-0.93,0.2c-0.28-0.11-0.33-0.44-0.21-0.6
		c0.18-0.27,0.14-1.22-0.98-0.33c-0.13,0.1-8.26,6.17-8.31,6.21c-0.57,0.4-0.75,0.78-0.7,1.26l-5.19,4.46
		c-0.4,0.29-0.97,0.98-0.75,1.81c0.19,0.74,0.16,1.44,0.48,1.8c0,0,0.1,0.16,0.26,0.08c0.06-0.03,2.03-1.43,2.03-1.43
		c0.18-0.12,0.42-0.08,0.55,0.1c0.12,0.18,0.08,0.42-0.04,0.51c0,0-1.3,0.91-1.33,0.94c-0.06,0.07-0.17,0.49,0.54,0.43
		c0.34,0,1.03-0.04,1.11-0.04c0.73,0,0.84-0.51,0.84-0.51c0.03-0.1,0.12-0.25,0.24-0.33c0.14-0.08,1.97-0.81,2.84-1.13
		c0.92-0.33,2.11-0.03,3.27-0.31c0.89-0.21,1.4-0.74,1.61-1.17c0.15-0.32,0.42-0.47,0.63-0.46c1.85,0.11,3.05,10.76,7.29,14.36l0,0
		c0.11,0.12,0.34,0.32,0.34,0.53c0,0.32-0.26,0.57-0.57,0.57L34.23,36.59L34.23,36.59z"/>
	<g>
		<path class="st2" d="M93.88,12.37L93.88,12.37L93.88,12.37c2.88,0,5.43,1.17,7.3,3.04c1.92,1.86,3.04,4.47,3.04,7.35l0,0l0,0l0,0
			l0,0c0,2.82-1.12,5.43-3.04,7.3c-1.86,1.86-4.42,3.04-7.3,3.04l0,0l0,0l0,0l0,0c-2.88,0-5.43-1.17-7.35-3.04
			c-1.86-1.86-3.04-4.47-3.04-7.3l0,0l0,0l0,0l0,0c0-2.88,1.17-5.49,3.04-7.35C88.45,13.54,91.01,12.37,93.88,12.37L93.88,12.37
			L93.88,12.37L93.88,12.37z M93.88,12.53L93.88,12.53L93.88,12.53L93.88,12.53L93.88,12.53c-2.82,0-5.38,1.17-7.19,2.98
			c-1.86,1.86-3.04,4.42-3.04,7.24l0,0l0,0l0,0l0,0c0,2.82,1.17,5.38,3.04,7.19c1.81,1.86,4.37,2.98,7.19,2.98l0,0l0,0l0,0l0,0
			c2.82,0,5.38-1.12,7.19-2.98c1.86-1.81,2.98-4.37,2.98-7.19l0,0l0,0l0,0l0,0c0-2.82-1.12-5.38-2.98-7.24
			C99.26,13.7,96.71,12.53,93.88,12.53z"/>
		<radialGradient id="SVGID_1_" cx="82.5722" cy="19.5815" r="33.0426" gradientUnits="userSpaceOnUse">
			<stop  offset="0" style="stop-color:#FFFFFF"/>
			<stop  offset="0.041" style="stop-color:#FAFAF8"/>
			<stop  offset="0.2247" style="stop-color:#F8F8F5"/>
			<stop  offset="0.2867" style="stop-color:#DBDBD8"/>
			<stop  offset="0.4133" style="stop-color:#A4A5A2"/>
			<stop  offset="0.5197" style="stop-color:#7F807D"/>
			<stop  offset="0.6004" style="stop-color:#686966"/>
			<stop  offset="0.6461" style="stop-color:#5F5F5D"/>
			<stop  offset="0.7394" style="stop-color:#565653"/>
			<stop  offset="0.8995" style="stop-color:#393834"/>
			<stop  offset="1" style="stop-color:#000000"/>
		</radialGradient>
		<path class="st3" d="M93.88,6.88c3.62,0,6.98,1.22,9.64,3.25l1.76-1.76l3.09,3.09l-1.76,1.81c1.97,2.66,3.09,5.91,3.09,9.43
			c0,8.74-7.08,15.87-15.82,15.87S78.06,31.44,78.06,22.7C78.06,13.97,85.15,6.88,93.88,6.88L93.88,6.88z M93.88,10.61
			c-6.66,0-12.09,5.43-12.09,12.09c0,6.71,5.43,12.09,12.09,12.09c6.66,0,12.09-5.38,12.09-12.09
			C105.97,16.04,100.54,10.61,93.88,10.61z"/>
		<linearGradient id="SVGID_2_" gradientUnits="userSpaceOnUse" x1="87.6395" y1="20.6" x2="99.4863" y2="24.6791">
			<stop  offset="0" style="stop-color:#DDDCD4"/>
			<stop  offset="1" style="stop-color:#FFFFFF"/>
		</linearGradient>
		<path class="st4" d="M93.88,10.56L93.88,10.56L93.88,10.56c3.36,0,6.39,1.33,8.63,3.57c2.18,2.18,3.57,5.22,3.57,8.63l0,0l0,0l0,0
			l0,0c0,3.36-1.38,6.39-3.57,8.63c-2.24,2.18-5.27,3.57-8.63,3.57l0,0l0,0l0,0l0,0c-3.36,0-6.44-1.38-8.63-3.57
			c-2.18-2.24-3.57-5.27-3.57-8.63l0,0l0,0l0,0l0,0c0-3.41,1.38-6.44,3.57-8.63l0,0C87.44,11.89,90.53,10.56,93.88,10.56
			L93.88,10.56L93.88,10.56L93.88,10.56z M93.88,10.72L93.88,10.72L93.88,10.72L93.88,10.72L93.88,10.72c-3.3,0-6.34,1.33-8.52,3.52
			l0,0c-2.18,2.18-3.52,5.17-3.52,8.52l0,0l0,0l0,0l0,0c0,3.3,1.33,6.34,3.52,8.52c2.18,2.13,5.22,3.52,8.52,3.52l0,0l0,0l0,0l0,0
			c3.3,0,6.34-1.38,8.52-3.52c2.18-2.18,3.52-5.22,3.52-8.52l0,0l0,0l0,0l0,0c0-3.36-1.33-6.34-3.52-8.52
			C100.22,12.05,97.19,10.72,93.88,10.72z"/>
		<radialGradient id="SVGID_3_" cx="103.2859" cy="32.8978" r="36.2626" gradientUnits="userSpaceOnUse">
			<stop  offset="0" style="stop-color:#BDBDB8"/>
			<stop  offset="1" style="stop-color:#818179"/>
		</radialGradient>
		<path class="st5" d="M93.88,6.78L93.88,6.78L93.88,6.78c3.62,0,7.03,1.22,9.69,3.3l-0.05,0.05c-2.66-2.02-6.02-3.25-9.64-3.25
			c-8.74,0-15.82,7.08-15.82,15.82c0,8.74,7.08,15.87,15.82,15.87s15.82-7.14,15.82-15.87c0-3.52-1.12-6.76-3.09-9.43l0.05-0.05
			c1.97,2.66,3.14,5.91,3.14,9.48l0,0l0,0l0,0l0,0c0,4.42-1.81,8.42-4.69,11.29c-2.88,2.88-6.82,4.63-11.24,4.63l0,0l0,0l0,0l0,0
			c-4.37,0-8.36-1.76-11.24-4.63c-2.88-2.93-4.69-6.87-4.69-11.29l0,0l0,0l0,0l0,0c0-4.37,1.81-8.36,4.69-11.24
			C85.52,8.59,89.46,6.78,93.88,6.78L93.88,6.78L93.88,6.78z"/>
		<radialGradient id="SVGID_4_" cx="99.5876" cy="28.4596" r="25.4653" gradientUnits="userSpaceOnUse">
			<stop  offset="0" style="stop-color:#FFFFFF"/>
			<stop  offset="0.1572" style="stop-color:#F1F2F2"/>
			<stop  offset="0.2978" style="stop-color:#E4E5E6"/>
			<stop  offset="0.335" style="stop-color:#CFD0CF"/>
			<stop  offset="0.3996" style="stop-color:#AFB0AE"/>
			<stop  offset="0.4637" style="stop-color:#979895"/>
			<stop  offset="0.526" style="stop-color:#868784"/>
			<stop  offset="0.5858" style="stop-color:#7C7D7A"/>
			<stop  offset="0.6404" style="stop-color:#797A77"/>
			<stop  offset="0.7377" style="stop-color:#5E5E5A"/>
			<stop  offset="0.8456" style="stop-color:#41403C"/>
			<stop  offset="0.9369" style="stop-color:#191917"/>
			<stop  offset="1" style="stop-color:#000000"/>
		</radialGradient>
		<path class="st6" d="M93.88,10.66c6.66,0,12.09,5.38,12.09,12.09c0,6.66-5.43,12.09-12.09,12.09c-6.66,0-12.09-5.43-12.09-12.09
			C81.79,16.04,87.23,10.66,93.88,10.66L93.88,10.66z M93.88,12.37c-5.7,0-10.33,4.63-10.33,10.39c0,5.7,4.63,10.33,10.33,10.33
			s10.33-4.63,10.33-10.33C104.22,17,99.58,12.37,93.88,12.37z"/>
		<g>
			<linearGradient id="SVGID_5_" gradientUnits="userSpaceOnUse" x1="79.4878" y1="26.6081" x2="79.4878" y2="26.5186">
				<stop  offset="0" style="stop-color:#FFFFFF"/>
				<stop  offset="0.17" style="stop-color:#F8F8F5"/>
				<stop  offset="0.427" style="stop-color:#B2B3AD"/>
				<stop  offset="0.4352" style="stop-color:#AFAFAA"/>
				<stop  offset="0.5344" style="stop-color:#8A8B85"/>
				<stop  offset="0.6334" style="stop-color:#6C6C67"/>
				<stop  offset="0.7305" style="stop-color:#52524D"/>
				<stop  offset="0.8252" style="stop-color:#3C3B37"/>
				<stop  offset="0.9163" style="stop-color:#21201D"/>
				<stop  offset="1" style="stop-color:#141412"/>
			</linearGradient>
			<path class="st7" d="M79.43,26.54c0,0.01,0,0.03,0.01,0.04c0.01,0.01,0.02,0.02,0.03,0.02c0.01,0,0.02,0,0.04-0.01
				c0.01-0.01,0.02-0.01,0.04-0.03v-0.12c-0.04,0.01-0.07,0.02-0.09,0.03C79.44,26.5,79.43,26.52,79.43,26.54z"/>
			<linearGradient id="SVGID_6_" gradientUnits="userSpaceOnUse" x1="81.7216" y1="26.2701" x2="81.7216" y2="26.2334">
				<stop  offset="0" style="stop-color:#FFFFFF"/>
				<stop  offset="0.17" style="stop-color:#F8F8F5"/>
				<stop  offset="0.427" style="stop-color:#B2B3AD"/>
				<stop  offset="0.4352" style="stop-color:#AFAFAA"/>
				<stop  offset="0.5344" style="stop-color:#8A8B85"/>
				<stop  offset="0.6334" style="stop-color:#6C6C67"/>
				<stop  offset="0.7305" style="stop-color:#52524D"/>
				<stop  offset="0.8252" style="stop-color:#3C3B37"/>
				<stop  offset="0.9163" style="stop-color:#21201D"/>
				<stop  offset="1" style="stop-color:#141412"/>
			</linearGradient>
			<rect x="81.68" y="26.2" class="st8" width="0.07" height="0.06"/>
			<linearGradient id="SVGID_7_" gradientUnits="userSpaceOnUse" x1="81.7216" y1="26.3471" x2="81.7216" y2="26.3092">
				<stop  offset="0" style="stop-color:#FFFFFF"/>
				<stop  offset="0.17" style="stop-color:#F8F8F5"/>
				<stop  offset="0.427" style="stop-color:#B2B3AD"/>
				<stop  offset="0.4352" style="stop-color:#AFAFAA"/>
				<stop  offset="0.5344" style="stop-color:#8A8B85"/>
				<stop  offset="0.6334" style="stop-color:#6C6C67"/>
				<stop  offset="0.7305" style="stop-color:#52524D"/>
				<stop  offset="0.8252" style="stop-color:#3C3B37"/>
				<stop  offset="0.9163" style="stop-color:#21201D"/>
				<stop  offset="1" style="stop-color:#141412"/>
			</linearGradient>
			<rect x="81.68" y="26.28" class="st9" width="0.07" height="0.06"/>
			<linearGradient id="SVGID_8_" gradientUnits="userSpaceOnUse" x1="80.237" y1="26.6081" x2="80.237" y2="26.5186">
				<stop  offset="0" style="stop-color:#FFFFFF"/>
				<stop  offset="0.17" style="stop-color:#F8F8F5"/>
				<stop  offset="0.427" style="stop-color:#B2B3AD"/>
				<stop  offset="0.4352" style="stop-color:#AFAFAA"/>
				<stop  offset="0.5344" style="stop-color:#8A8B85"/>
				<stop  offset="0.6334" style="stop-color:#6C6C67"/>
				<stop  offset="0.7305" style="stop-color:#52524D"/>
				<stop  offset="0.8252" style="stop-color:#3C3B37"/>
				<stop  offset="0.9163" style="stop-color:#21201D"/>
				<stop  offset="1" style="stop-color:#141412"/>
			</linearGradient>
			<path class="st10" d="M80.18,26.54c0,0.01,0,0.03,0.01,0.04c0.01,0.01,0.02,0.02,0.03,0.02c0.01,0,0.02,0,0.04-0.01
				c0.01-0.01,0.02-0.01,0.04-0.03v-0.12c-0.04,0.01-0.07,0.02-0.09,0.03C80.19,26.5,80.18,26.52,80.18,26.54z"/>
			<linearGradient id="SVGID_9_" gradientUnits="userSpaceOnUse" x1="82.1106" y1="26.4162" x2="82.1106" y2="26.3591">
				<stop  offset="0" style="stop-color:#FFFFFF"/>
				<stop  offset="0.17" style="stop-color:#F8F8F5"/>
				<stop  offset="0.427" style="stop-color:#B2B3AD"/>
				<stop  offset="0.4352" style="stop-color:#AFAFAA"/>
				<stop  offset="0.5344" style="stop-color:#8A8B85"/>
				<stop  offset="0.6334" style="stop-color:#6C6C67"/>
				<stop  offset="0.7305" style="stop-color:#52524D"/>
				<stop  offset="0.8252" style="stop-color:#3C3B37"/>
				<stop  offset="0.9163" style="stop-color:#21201D"/>
				<stop  offset="1" style="stop-color:#141412"/>
			</linearGradient>
			<rect x="82.01" y="26.31" class="st11" width="0.2" height="0.1"/>
			<linearGradient id="SVGID_10_" gradientUnits="userSpaceOnUse" x1="81.6772" y1="28.0136" x2="81.6772" y2="26.8732">
				<stop  offset="0" style="stop-color:#FFFFFF"/>
				<stop  offset="0.17" style="stop-color:#F8F8F5"/>
				<stop  offset="0.427" style="stop-color:#B2B3AD"/>
				<stop  offset="0.4352" style="stop-color:#AFAFAA"/>
				<stop  offset="0.5344" style="stop-color:#8A8B85"/>
				<stop  offset="0.6334" style="stop-color:#6C6C67"/>
				<stop  offset="0.7305" style="stop-color:#52524D"/>
				<stop  offset="0.8252" style="stop-color:#3C3B37"/>
				<stop  offset="0.9163" style="stop-color:#21201D"/>
				<stop  offset="1" style="stop-color:#141412"/>
			</linearGradient>
			<path class="st12" d="M84.07,25.98h-5.66c0.14,0.67,0.33,1.31,0.55,1.94h5.99C84.59,27.31,84.3,26.66,84.07,25.98z M81.66,26.1
				l0.04,0.03l-0.02,0.02v0.04h0.07l0.02-0.02l0.03,0.03l-0.02,0.02v0.05h0.01l0.02-0.03l0.03,0.04h-0.06c0,0.04,0,0.07,0,0.08
				l-0.03,0.02v-0.02h-0.07v0.07h0.06l0.02-0.03l0.03,0.04h-0.11v0.07h0.09l0.02-0.03l0.03,0.05h-0.15c0,0.03,0,0.06,0,0.09
				l-0.03,0.01c0-0.04,0-0.07,0-0.1h-0.08c-0.01,0-0.02,0-0.03,0.01l-0.02-0.02h0.13v-0.07H81.6c-0.01,0-0.02,0-0.02,0.01
				l-0.02-0.02h0.1v-0.07H81.6c-0.01,0-0.02,0-0.02,0.01l-0.02-0.02h0.1v-0.06h-0.08c-0.01,0-0.02,0-0.02,0.01l-0.02-0.02h0.12V26.2
				h-0.05c-0.01,0-0.02,0-0.02,0.01l-0.02-0.02h0.09C81.66,26.16,81.66,26.13,81.66,26.1z M79.33,26.62h-0.15V26.6h0.04
				c0.01,0,0.01,0,0.01-0.01c0,0,0-0.01,0-0.01v-0.36c0-0.01,0-0.01,0-0.01c0,0-0.01-0.01-0.01-0.01h-0.04v-0.01h0.02
				c0.01,0,0.02,0,0.03-0.01c0.01,0,0.02-0.01,0.03-0.01h0v0.41c0,0.01,0,0.01,0,0.01c0,0,0.01,0.01,0.01,0.01h0.04V26.62z
				 M79.6,26.6c-0.01,0.01-0.01,0.01-0.03,0.01c-0.01,0-0.02,0-0.02-0.01c-0.01,0-0.01-0.01-0.01-0.02
				c-0.01,0.01-0.02,0.02-0.04,0.03c-0.01,0.01-0.02,0.01-0.04,0.01c-0.02,0-0.04-0.01-0.05-0.02c-0.01-0.01-0.02-0.03-0.02-0.05
				c0-0.03,0.01-0.05,0.03-0.07c0.02-0.02,0.06-0.03,0.12-0.04V26.4c0-0.02,0-0.03-0.01-0.04c-0.01-0.01-0.02-0.02-0.04-0.02
				c-0.02,0-0.04,0-0.05,0.01c-0.01,0.01-0.01,0.02-0.01,0.03c0,0.01,0,0.01,0,0.02c0,0.01-0.01,0.01-0.02,0.01
				c-0.01,0-0.01,0-0.01-0.01c0,0-0.01-0.01-0.01-0.02c0-0.02,0.01-0.03,0.03-0.04c0.02-0.01,0.04-0.02,0.06-0.02
				c0.03,0,0.05,0.01,0.06,0.02c0.01,0.01,0.02,0.03,0.02,0.05v0.16c0,0.01,0,0.02,0,0.02c0,0,0.01,0,0.01,0
				c0.01,0,0.01,0,0.01-0.01c0-0.01,0-0.02,0-0.03h0.01C79.61,26.58,79.61,26.59,79.6,26.6z M79.86,26.62h-0.08V26.6h0.01
				c0.01,0,0.01,0,0.01-0.01c0,0,0-0.01,0-0.01v-0.17c0-0.02,0-0.04-0.01-0.05c-0.01-0.01-0.02-0.02-0.03-0.02
				c-0.01,0-0.02,0.01-0.04,0.01c-0.01,0.01-0.02,0.02-0.03,0.04v0.17c0,0.01,0,0.01,0.01,0.01c0,0,0.01,0.01,0.01,0.01h0.01v0.01
				h-0.08V26.6h0.01c0.01,0,0.01,0,0.01-0.01c0,0,0-0.01,0-0.01v-0.21c0,0,0-0.01,0-0.01c0,0,0,0-0.01,0h-0.02v-0.01h0.01
				c0.01,0,0.01,0,0.02,0c0.01,0,0.01-0.01,0.02-0.01h0v0.06c0.01-0.02,0.02-0.03,0.04-0.04c0.01-0.01,0.02-0.01,0.04-0.01
				c0.02,0,0.04,0.01,0.05,0.02c0.01,0.02,0.02,0.04,0.02,0.07v0.16c0,0.01,0,0.01,0.01,0.01c0,0,0.01,0.01,0.01,0.01h0.01V26.62z
				 M80.07,26.6c-0.01,0.01-0.03,0.02-0.04,0.02c-0.02,0-0.03-0.01-0.04-0.02c-0.01-0.02-0.01-0.04-0.01-0.07v-0.17h-0.06v-0.01
				h0.02c0.02,0,0.03-0.01,0.04-0.02c0.01-0.01,0.02-0.03,0.02-0.06l0-0.02h0.01v0.1h0.08v0.01h-0.08v0.18c0,0.02,0,0.04,0.01,0.05
				c0.01,0.01,0.02,0.01,0.03,0.01c0.01,0,0.02-0.01,0.03-0.02c0.01-0.01,0.01-0.03,0.02-0.05l0.01,0.01
				C80.08,26.56,80.08,26.58,80.07,26.6z M80.35,26.6c-0.01,0.01-0.01,0.01-0.03,0.01c-0.01,0-0.02,0-0.02-0.01
				c-0.01,0-0.01-0.01-0.01-0.02c-0.01,0.01-0.02,0.02-0.04,0.03c-0.01,0.01-0.02,0.01-0.04,0.01c-0.02,0-0.04-0.01-0.05-0.02
				c-0.01-0.01-0.02-0.03-0.02-0.05c0-0.03,0.01-0.05,0.03-0.07c0.02-0.02,0.06-0.03,0.12-0.04V26.4c0-0.02,0-0.03-0.01-0.04
				c-0.01-0.01-0.02-0.02-0.04-0.02c-0.02,0-0.04,0-0.05,0.01c-0.01,0.01-0.01,0.02-0.01,0.03c0,0.01,0,0.01,0,0.02
				c0,0.01-0.01,0.01-0.02,0.01c-0.01,0-0.01,0-0.01-0.01c0,0-0.01-0.01-0.01-0.02c0-0.02,0.01-0.03,0.03-0.04
				c0.02-0.01,0.04-0.02,0.06-0.02c0.03,0,0.05,0.01,0.06,0.02c0.01,0.01,0.02,0.03,0.02,0.05v0.16c0,0.01,0,0.02,0,0.02
				c0,0,0.01,0,0.01,0c0.01,0,0.01,0,0.01-0.01c0-0.01,0-0.02,0-0.03h0.01C80.36,26.58,80.36,26.59,80.35,26.6z M80.6,26.39
				c0,0.01-0.01,0.01-0.01,0.01c-0.01,0-0.01,0-0.01-0.01c0,0,0-0.01,0-0.02c0-0.01,0-0.01,0-0.01c0,0-0.01-0.01-0.01-0.01
				c-0.01,0-0.02,0.01-0.04,0.02c-0.01,0.02-0.03,0.04-0.04,0.07v0.13c0,0.01,0,0.01,0,0.01c0,0,0.01,0.01,0.01,0.01h0.04v0.01
				h-0.14V26.6h0.04c0.01,0,0.01,0,0.01-0.01c0,0,0-0.01,0-0.01v-0.21c0-0.01,0-0.01,0-0.02c0,0-0.01-0.01-0.01-0.01h-0.04v-0.01
				h0.02c0.01,0,0.02,0,0.03,0c0.01,0,0.02-0.01,0.03-0.01h0.01v0.09c0.01-0.03,0.03-0.05,0.04-0.06c0.01-0.01,0.03-0.02,0.05-0.02
				c0.01,0,0.02,0,0.03,0.01c0.01,0.01,0.01,0.02,0.01,0.03C80.6,26.38,80.6,26.38,80.6,26.39z M81.15,26.52v0.1
				c0,0.03-0.01,0.06-0.04,0.07c0-0.02-0.02-0.04-0.06-0.05v-0.01c0.03,0,0.04,0.01,0.06,0.01c0.01,0,0.02-0.01,0.02-0.03v-0.08
				h-0.16c-0.01,0-0.03,0-0.04,0.01l-0.02-0.02h0.21c0-0.02,0-0.05,0-0.07l0.03,0.01l0.05-0.06h-0.16l-0.02,0.01L81,26.38h0.19
				l0.02-0.02l0.04,0.05c-0.02,0-0.05,0.01-0.1,0.05l0.02,0.01l-0.02,0.02v0.02h0.13l0.03-0.03l0.04,0.05H81.15z M81.35,26.37
				c-0.02,0-0.03,0.01-0.04,0.03c-0.08-0.04-0.13-0.11-0.16-0.19h-0.01c0,0.08,0,0.12,0,0.14l-0.03,0.01c0-0.04,0-0.08,0-0.14
				c-0.04,0.09-0.11,0.16-0.2,0.2l0-0.01c0.08-0.05,0.14-0.12,0.18-0.21h-0.12c-0.01,0-0.03,0-0.04,0.01L80.9,26.2h0.2
				c0-0.01,0-0.04,0-0.09l0.05,0.03l-0.02,0.02v0.04h0.14l0.03-0.03l0.03,0.05h-0.19C81.19,26.29,81.25,26.34,81.35,26.37
				L81.35,26.37z M81.85,26.64c-0.03,0.01-0.04,0.02-0.04,0.04c-0.04,0-0.08,0-0.12,0c-0.05,0-0.08-0.01-0.12-0.02
				c-0.03-0.02-0.06-0.03-0.08-0.06c-0.02,0.03-0.05,0.06-0.09,0.1l-0.01-0.01c0.03-0.03,0.06-0.07,0.08-0.11
				c-0.02-0.04-0.04-0.08-0.05-0.13l0.01,0c0.01,0.04,0.03,0.07,0.05,0.1c0.01-0.04,0.02-0.1,0.03-0.17h-0.06l-0.02,0.03l-0.03-0.03
				l0.02-0.01c0.02-0.05,0.05-0.1,0.07-0.15h-0.06l-0.02,0.01L81.4,26.2h0.1l0.02-0.03l0.03,0.04l-0.02,0.01
				c-0.02,0.05-0.05,0.09-0.07,0.14h0.05l0.02-0.02l0.03,0.03l-0.02,0.02c-0.01,0.07-0.02,0.13-0.03,0.17
				c0.02,0.02,0.04,0.04,0.07,0.05c0.03,0.01,0.07,0.02,0.1,0.02C81.72,26.64,81.77,26.64,81.85,26.64L81.85,26.64z M82.33,26.64
				c-0.02,0-0.04,0.02-0.04,0.04c-0.04-0.01-0.07-0.03-0.1-0.05c-0.03-0.02-0.05-0.04-0.07-0.08c-0.02-0.03-0.04-0.07-0.05-0.13
				h-0.06v0.2l0.11-0.06l0,0.01c-0.07,0.05-0.11,0.08-0.12,0.1l-0.02-0.04c0.01-0.01,0.01-0.02,0.01-0.03v-0.36
				c0-0.03,0-0.05,0-0.07l0.03,0.02h0.1c0-0.03-0.01-0.06-0.03-0.09l0-0.01c0.03,0.02,0.05,0.04,0.06,0.05c0,0.01,0,0.03-0.01,0.04
				h0.09l0.02-0.02l0.03,0.03l-0.02,0.01v0.14c0,0.02,0,0.04,0,0.06l-0.03,0.01v-0.02h-0.13c0.01,0.04,0.03,0.08,0.05,0.11
				c0.06-0.04,0.1-0.07,0.12-0.1l0.03,0.05h-0.02c-0.04,0.02-0.08,0.04-0.12,0.06c0.03,0.03,0.06,0.05,0.09,0.06
				c0.03,0.01,0.07,0.02,0.1,0.02V26.64z"/>
			<linearGradient id="SVGID_11_" gradientUnits="userSpaceOnUse" x1="82.1106" y1="26.3059" x2="82.1106" y2="26.2548">
				<stop  offset="0" style="stop-color:#FFFFFF"/>
				<stop  offset="0.17" style="stop-color:#F8F8F5"/>
				<stop  offset="0.427" style="stop-color:#B2B3AD"/>
				<stop  offset="0.4352" style="stop-color:#AFAFAA"/>
				<stop  offset="0.5344" style="stop-color:#8A8B85"/>
				<stop  offset="0.6334" style="stop-color:#6C6C67"/>
				<stop  offset="0.7305" style="stop-color:#52524D"/>
				<stop  offset="0.8252" style="stop-color:#3C3B37"/>
				<stop  offset="0.9163" style="stop-color:#21201D"/>
				<stop  offset="1" style="stop-color:#141412"/>
			</linearGradient>
			<rect x="82.01" y="26.21" class="st13" width="0.2" height="0.09"/>
			
				<linearGradient id="SVGID_12_" gradientUnits="userSpaceOnUse" x1="-104.5209" y1="28.0136" x2="-104.5209" y2="26.8732" gradientTransform="matrix(-1 0 0 1 1.5762 0)">
				<stop  offset="0" style="stop-color:#FFFFFF"/>
				<stop  offset="0.17" style="stop-color:#F8F8F5"/>
				<stop  offset="0.427" style="stop-color:#B2B3AD"/>
				<stop  offset="0.4352" style="stop-color:#AFAFAA"/>
				<stop  offset="0.5344" style="stop-color:#8A8B85"/>
				<stop  offset="0.6334" style="stop-color:#6C6C67"/>
				<stop  offset="0.7305" style="stop-color:#52524D"/>
				<stop  offset="0.8252" style="stop-color:#3C3B37"/>
				<stop  offset="0.9163" style="stop-color:#21201D"/>
				<stop  offset="1" style="stop-color:#141412"/>
			</linearGradient>
			<path class="st14" d="M103.7,25.98h5.66c-0.14,0.67-0.33,1.31-0.55,1.94h-5.99C103.18,27.31,103.48,26.66,103.7,25.98z"/>
		</g>
		<path class="st15" d="M109.65,18.71L109.65,18.71c0.37,1.28,0.53,2.61,0.53,3.99c0,1.44-0.21,2.82-0.53,4.15H78.17V26.8h31.43
			c0.37-1.33,0.53-2.72,0.53-4.15C110.13,21.26,109.97,19.93,109.65,18.71z"/>
		<radialGradient id="SVGID_13_" cx="79.0596" cy="19.583" r="20.5573" gradientUnits="userSpaceOnUse">
			<stop  offset="0" style="stop-color:#0072BC"/>
			<stop  offset="0.0822" style="stop-color:#0069AF"/>
			<stop  offset="0.1658" style="stop-color:#0065A7"/>
			<stop  offset="0.2416" style="stop-color:#0063A5"/>
			<stop  offset="0.3915" style="stop-color:#005D9B"/>
			<stop  offset="0.6854" style="stop-color:#004C83"/>
			<stop  offset="0.8371" style="stop-color:#004274"/>
			<stop  offset="0.9335" style="stop-color:#004274"/>
			<stop  offset="0.9682" style="stop-color:#004073"/>
			<stop  offset="0.9929" style="stop-color:#003C71"/>
			<stop  offset="1" style="stop-color:#003B70"/>
		</radialGradient>
		<path class="st16" d="M78.12,18.65h31.53c0.32,1.28,0.48,2.61,0.48,3.99c0,1.44-0.16,2.82-0.53,4.15H78.17
			c-0.37-1.33-0.59-2.72-0.59-4.15C77.58,21.26,77.8,19.93,78.12,18.65z"/>
		<linearGradient id="SVGID_14_" gradientUnits="userSpaceOnUse" x1="109.1245" y1="15.2262" x2="101.1131" y2="7.2148">
			<stop  offset="5.618000e-03" style="stop-color:#0B0A03"/>
			<stop  offset="0.6461" style="stop-color:#43423F"/>
			<stop  offset="0.6504" style="stop-color:#474643"/>
			<stop  offset="0.655" style="stop-color:#53524F"/>
			<stop  offset="0.6596" style="stop-color:#646561"/>
			<stop  offset="0.6642" style="stop-color:#7B7C77"/>
			<stop  offset="0.6689" style="stop-color:#979894"/>
			<stop  offset="0.6736" style="stop-color:#BCBDB8"/>
			<stop  offset="0.6783" style="stop-color:#E8E8E3"/>
			<stop  offset="0.68" style="stop-color:#FBFBF5"/>
			<stop  offset="0.6824" style="stop-color:#F8F8F2"/>
			<stop  offset="0.6839" style="stop-color:#F1F0EA"/>
			<stop  offset="0.6852" style="stop-color:#E4E4DE"/>
			<stop  offset="0.6864" style="stop-color:#D3D3CD"/>
			<stop  offset="0.6874" style="stop-color:#BDBDB6"/>
			<stop  offset="0.6885" style="stop-color:#A2A29B"/>
			<stop  offset="0.6894" style="stop-color:#84857E"/>
			<stop  offset="0.69" style="stop-color:#6D6E67"/>
			<stop  offset="0.7057" style="stop-color:#5F5F5B"/>
			<stop  offset="0.7315" style="stop-color:#4C4C4A"/>
			<stop  offset="0.7621" style="stop-color:#383837"/>
			<stop  offset="0.7999" style="stop-color:#1E1E1E"/>
			<stop  offset="0.8529" style="stop-color:#070708"/>
			<stop  offset="1" style="stop-color:#000000"/>
		</linearGradient>
		<polygon class="st17" points="105.92,7.31 109.44,10.82 106.83,13.43 106.99,13.65 105.12,15.14 104.54,15.35 108.37,11.46 
			105.28,8.37 101.45,12.21 101.61,11.68 		"/>
		<radialGradient id="SVGID_15_" cx="108.4658" cy="7.7463" r="8.5912" gradientUnits="userSpaceOnUse">
			<stop  offset="0" style="stop-color:#565651"/>
			<stop  offset="1" style="stop-color:#51514C"/>
		</radialGradient>
		<path class="st18" d="M102.41,6.94c3.09,1.65,5.59,4.21,7.3,7.24V6.94H102.41z"/>
		<path class="st19" d="M102.41,6.94c3.09,1.65,5.59,4.21,7.3,7.24"/>
		<path class="st20" d="M102.41,6.94c3.04,1.65,5.59,4.21,7.24,7.24"/>
		<path class="st21" d="M102.35,6.94c3.09,1.65,5.59,4.21,7.3,7.3"/>
		<path class="st22" d="M102.35,6.94c3.04,1.7,5.59,4.21,7.24,7.3"/>
		<linearGradient id="SVGID_16_" gradientUnits="userSpaceOnUse" x1="102.2991" y1="6.8558" x2="109.8091" y2="6.8558">
			<stop  offset="0" style="stop-color:#5C5D60"/>
			<stop  offset="0.0192" style="stop-color:#5A5B5C"/>
			<stop  offset="0.2048" style="stop-color:#474644"/>
			<stop  offset="0.4097" style="stop-color:#31302E"/>
			<stop  offset="0.6486" style="stop-color:#1C1C19"/>
			<stop  offset="1" style="stop-color:#141412"/>
		</linearGradient>
		<path class="st23" d="M109.7,6.78c0.05,0,0.11,0.05,0.11,0.16l0,0h-7.4h-0.11c0-0.11,0.05-0.16,0.11-0.16H109.7z"/>
		<linearGradient id="SVGID_17_" gradientUnits="userSpaceOnUse" x1="109.7293" y1="14.3396" x2="109.7293" y2="6.776">
			<stop  offset="0" style="stop-color:#5C5D60"/>
			<stop  offset="0.3855" style="stop-color:#444341"/>
			<stop  offset="0.7416" style="stop-color:#252522"/>
			<stop  offset="1" style="stop-color:#141412"/>
		</linearGradient>
		<path class="st24" d="M109.81,14.18c0,0.11-0.05,0.16-0.11,0.16l-0.05-0.11V6.78c0,0,0,0,0.05,0c0.05,0,0.11,0.05,0.11,0.16V14.18
			z"/>
		<g>
			<path class="st25" d="M105.28,24.7c-1.43,0-2.59-0.87-2.59-1.95c0-1.07,1.16-1.95,2.59-1.95c1.46,0,2.64,0.87,2.64,1.95
				C107.92,23.83,106.74,24.7,105.28,24.7z M105.28,21.4c-0.51,0-0.88,0.57-0.88,1.35c0,0.74,0.38,1.3,0.88,1.3
				c0.47,0,0.88-0.6,0.88-1.3C106.16,22.01,105.76,21.4,105.28,21.4z M89.09,24.7c-1.43,0-2.59-0.87-2.59-1.95
				c0-1.03,1.18-1.89,2.59-1.89c1.46,0,2.64,0.85,2.64,1.89C91.73,23.83,90.54,24.7,89.09,24.7z M89.09,21.45
				c-0.5,0-0.88,0.56-0.88,1.3s0.38,1.3,0.88,1.3c0.47,0,0.88-0.6,0.88-1.3S89.56,21.45,89.09,21.45z M98.57,24.6l-1.68-3.1
				l-0.83,0.02L96.04,21l3.65-0.03l0.03,0.51l-0.94,0.03l1.3,2.14l1.07-2.18l-0.61,0.04L100.51,21l2.53-0.03l0.03,0.51l-0.88,0.03
				l-1.63,3.09H98.57z M91.91,24.6l-0.03-0.62l0.88-0.03l-0.03-2.47l-0.82,0.03L91.88,21l3.39-0.03l0.03,0.51l-0.88,0.03l0.03,2.47
				l0.88-0.03c0.29,0,1.04-0.19,1.09-1.04l0.56-0.03L97,24.6H91.91z M82.38,24.6l-1.68-3.1l-0.83,0.02L79.84,21l3.65-0.03l0.03,0.51
				l-0.94,0.03l1.3,2.14l1.12-2.18l-0.67,0.04L84.32,21l2.53-0.03l0.03,0.51L86,21.51l-1.63,3.09H82.38z"/>
			<path class="st26" d="M105.28,20.84c1.44,0,2.61,0.85,2.61,1.92c0,1.07-1.17,1.92-2.61,1.92c-1.38,0-2.56-0.85-2.56-1.92
				C102.73,21.69,103.9,20.84,105.28,20.84 M105.28,24.09c0.48,0,0.91-0.59,0.91-1.33c0-0.8-0.43-1.38-0.91-1.38
				c-0.53,0-0.91,0.59-0.91,1.38C104.38,23.5,104.75,24.09,105.28,24.09 M89.09,20.89c1.44,0,2.61,0.85,2.61,1.86
				c0,1.07-1.17,1.92-2.61,1.92c-1.38,0-2.56-0.85-2.56-1.92C86.53,21.74,87.7,20.89,89.09,20.89 M89.09,24.09
				c0.48,0,0.91-0.59,0.91-1.33c0-0.75-0.43-1.33-0.91-1.33c-0.53,0-0.91,0.59-0.91,1.33C88.18,23.5,88.56,24.09,89.09,24.09
				 M103.04,21v0.48h-0.85l-1.65,3.09h-1.97l-1.65-3.09h-0.85V21h3.62v0.48h-0.91l1.28,2.18l1.12-2.18h-0.64V21H103.04 M95.27,21
				v0.48h-0.85v2.5c0,0,0.59,0,0.91,0c0.32,0,1.07-0.21,1.12-1.07c0.43,0,0.53,0,0.53,0v1.65h-4.21h-0.85v-0.59h0.85v-2.5h-0.85V21
				H95.27 M86.85,21v0.48H86l-1.65,3.09h-1.97l-1.65-3.09h-0.85V21h3.62v0.48h-0.91l1.28,2.18l1.17-2.18h-0.69V21H86.85
				 M105.28,20.78c-1.44,0-2.62,0.89-2.62,1.98c0,1.09,1.17,1.98,2.62,1.98c1.47,0,2.67-0.89,2.67-1.98
				C107.95,21.66,106.75,20.78,105.28,20.78L105.28,20.78z M105.28,24.03c-0.48,0-0.85-0.55-0.85-1.27c0-0.77,0.36-1.32,0.85-1.32
				c0.47,0,0.85,0.59,0.85,1.32C106.13,23.44,105.74,24.03,105.28,24.03L105.28,24.03z M89.09,20.83c-1.42,0-2.62,0.88-2.62,1.92
				c0,1.09,1.17,1.98,2.62,1.98c1.47,0,2.67-0.89,2.67-1.98C91.76,21.69,90.56,20.83,89.09,20.83L89.09,20.83z M89.09,24.03
				c-0.48,0-0.85-0.55-0.85-1.27c0-0.73,0.36-1.27,0.85-1.27c0.46,0,0.85,0.58,0.85,1.27C89.94,23.44,89.55,24.03,89.09,24.03
				L89.09,24.03z M103.1,20.94h-0.06h-2.5h-0.06V21v0.48v0.06h0.06h0.54l-1.02,2l-1.17-2h0.8h0.06v-0.06V21v-0.06h-0.06h-3.62h-0.06
				V21v0.48v0.06h0.06h0.82l1.63,3.06l0.02,0.03h0.04h1.97h0.04l0.02-0.03l1.63-3.06h0.82h0.06v-0.06V21V20.94L103.1,20.94z
				 M95.33,20.94h-0.06h-3.36h-0.06V21v0.48v0.06h0.06h0.79v2.38h-0.79h-0.06v0.06v0.59v0.06h0.06h0.85h4.21h0.06v-0.06v-1.65v-0.06
				h-0.06h-0.53h-0.06l0,0.06c-0.05,0.83-0.78,1.01-1.06,1.01h-0.85v-2.38h0.79h0.06v-0.06V21V20.94L95.33,20.94z M86.91,20.94
				h-0.06h-2.5h-0.06V21v0.48v0.06h0.06h0.59l-1.07,2l-1.17-2h0.8h0.06v-0.06V21v-0.06H83.5h-3.62h-0.06V21v0.48v0.06h0.06h0.82
				l1.63,3.06l0.02,0.03h0.04h1.97h0.04l0.02-0.03l1.63-3.06h0.82h0.06v-0.06V21V20.94L86.91,20.94z"/>
		</g>
		<linearGradient id="SVGID_18_" gradientUnits="userSpaceOnUse" x1="81.9388" y1="16.1632" x2="86.7476" y2="22.6673">
			<stop  offset="0" style="stop-color:#FFFFFF"/>
			<stop  offset="0.1091" style="stop-color:#D3DEF2"/>
			<stop  offset="0.3376" style="stop-color:#89AEDC"/>
			<stop  offset="0.5419" style="stop-color:#4E90CD"/>
			<stop  offset="0.7143" style="stop-color:#007EC3"/>
			<stop  offset="0.8481" style="stop-color:#0075BE"/>
			<stop  offset="0.927" style="stop-color:#0072BC"/>
			<stop  offset="0.9468" style="stop-color:#007AC0"/>
			<stop  offset="0.9667" style="stop-color:#3581C3"/>
			<stop  offset="0.985" style="stop-color:#4A86C6"/>
			<stop  offset="1" style="stop-color:#5087C7"/>
		</linearGradient>
		<path class="st27" d="M78.17,18.72c-0.32,1.28-0.53,2.61-0.53,3.99c0,0.11,0.04,0.79,0.04,0.91l0.09,1.03
			c0-0.08-0.04-1.76-0.04-1.84c0-1.38,0.23-2.67,0.55-3.95l11.16-0.05l4.82-0.09H78.17z"/>
	</g>
</g>
</svg>
