<?xml version="1.0" encoding="utf-8"?>
<!-- Generator: Adobe Illustrator 25.0.1, SVG Export Plug-In . SVG Version: 6.00 Build 0)  -->
<svg version="1.1" id="Layer_1" xmlns="http://www.w3.org/2000/svg" xmlns:xlink="http://www.w3.org/1999/xlink" x="0px" y="0px"
	 viewBox="0 0 100 100" style="enable-background:new 0 0 100 100;" xml:space="preserve">
<style type="text/css">
	.st0{fill-rule:evenodd;clip-rule:evenodd;fill:#7F8183;}
	.st1{fill-rule:evenodd;clip-rule:evenodd;fill:none;stroke:#FFFFFF;stroke-miterlimit:10;}
</style>
<g>
	<path class="st0" d="M26.6,77.8V52.2h13.6c4.9,0.9,9.7,3.5,14.6,6.6h8.9c4,0.2,6.2,4.3,2.3,7.1c-3.1,2.3-7.3,2.2-11.5,1.8
		c-3-0.1-3.1,3.8,0,3.8c1,0.1,2.2-0.1,3.2-0.1c5.3,0,9.6-1,12.3-5.1l1.4-3.2l13.4-6.7c6.6-2.2,11.4,4.8,6.5,9.6
		c-9.3,6.7-19.2,12.6-29.6,17.4c-7.3,4.5-14.6,4.3-22.1,0L26.6,77.8L26.6,77.8z"/>
	<path class="st0" d="M21.6,49.8H8.8c-1.1,0-2.2,0.9-2.2,2.2v26.2c0,1.1,0.9,2.2,2.2,2.2h12.8c1.1,0,2.2-0.9,2.2-2.2V52
		C23.8,50.9,22.9,49.8,21.6,49.8z M18.1,75.6c-1.4,0-2.5-1.1-2.5-2.5s1.1-2.5,2.5-2.5c1.4,0,2.5,1.1,2.5,2.5S19.4,75.6,18.1,75.6z"
		/>
	<path class="st0" d="M71.4,16.8c-0.1-0.1-0.2-0.1-0.2-0.1c-0.1,0-0.1,0-0.2,0c-0.2,0-0.4,0.1-0.6,0.2l-1.9,2.3
		c-0.4,0.4-1,0.5-1.5,0.2c-0.2-0.1-0.5-0.2-0.9-0.4c-0.2-0.1-0.6-0.2-0.9-0.4s-0.6-0.1-1-0.2c-0.4-0.1-0.6-0.1-1-0.2
		c-0.5-0.1-0.9-0.6-0.9-1.1l-0.2-3c0-0.1,0-0.2-0.1-0.4c0-0.1-0.1-0.1-0.1-0.2c-0.1-0.1-0.1-0.1-0.2-0.1c-0.1,0-0.2,0-0.4,0l-4,0.4
		c-0.1,0-0.2,0-0.4,0.1c-0.1,0-0.2,0.1-0.2,0.2s-0.1,0.1-0.1,0.2l0,0c0,0.1,0,0.1,0,0.2l0.2,2.9c0,0.6-0.2,1.1-0.9,1.2
		c-0.2,0.1-0.5,0.1-0.9,0.4c-0.4,0.1-0.6,0.2-0.9,0.4l0,0c-0.2,0.1-0.5,0.2-0.7,0.5h-0.1c-0.2,0.1-0.5,0.4-0.7,0.5
		c-0.4,0.2-1,0.2-1.3,0l-2.2-2.3C49,18,49,18,48.9,18s-0.1,0-0.2,0c-0.1,0-0.2,0-0.4,0.1l0,0c-0.1,0-0.1,0.1-0.2,0.1l-2.4,3.2
		c-0.1,0-0.1,0.1-0.2,0.2c0,0.1,0,0.1,0,0.2l0,0c0,0.1,0,0.1,0.1,0.2l0,0c0,0.1,0.1,0.1,0.1,0.2l2.3,1.9c0.5,0.4,0.5,1,0.2,1.5
		c-0.1,0.2-0.2,0.5-0.4,0.7c-0.1,0.2-0.2,0.6-0.4,0.9c-0.1,0.2-0.2,0.6-0.2,1c-0.1,0.4-0.1,0.6-0.2,1c-0.1,0.5-0.5,0.9-1,1l-3,0.2
		c-0.1,0-0.2,0-0.4,0.1c-0.1,0-0.1,0.1-0.2,0.1c0,0.1-0.1,0.1-0.1,0.2c0,0.1,0,0.2,0,0.2l0.4,4c0,0.1,0,0.2,0.1,0.4
		c0,0.1,0.1,0.2,0.2,0.2c0.1,0,0.1,0.1,0.2,0.1s0.2,0,0.2,0l2.9-0.2c0.5,0,1,0.4,1.2,0.9c0.1,0.2,0.2,0.5,0.4,0.9
		c0.1,0.2,0.2,0.6,0.4,0.9v0.1c0.1,0.2,0.2,0.5,0.4,0.7l0.5,0.9c0.2,0.4,0.2,1-0.1,1.3l-2.1,2.6c0,0.1-0.1,0.1-0.1,0.2
		c0,0.1,0,0.1,0,0.2s0,0.2,0.1,0.4c0,0.1,0.1,0.1,0.2,0.2c1.1,0.9,2.1,1.7,3.2,2.6c0.1,0,0.1,0.1,0.2,0.1c0.1,0,0.2,0,0.2,0l0,0
		c0.1,0,0.2,0,0.4-0.1l0,0c0.1,0,0.1-0.1,0.2-0.1l1.8-2.3c0.4-0.5,1-0.5,1.5-0.2c0.2,0.1,0.5,0.2,0.9,0.4c0.2,0.1,0.6,0.2,0.9,0.4
		c0.2,0.1,0.6,0.2,1,0.2c0.4,0.1,0.6,0.1,1,0.2c0.5,0.1,0.9,0.6,0.9,1.1l0.2,3c0,0.1,0,0.2,0.1,0.4c0,0.1,0.1,0.1,0.1,0.2
		c0.1,0,0.1,0.1,0.2,0.1c0.1,0,0.2,0,0.4,0l4-0.4c0.1,0,0.2,0,0.4-0.1l0,0c0.1,0,0.1-0.1,0.2-0.1c0.1-0.1,0.1-0.1,0.1-0.2
		s0-0.1,0-0.2L64.8,47c0-0.5,0.2-1,0.7-1.2c0.2-0.1,0.6-0.2,0.9-0.4h0.1c0.2-0.1,0.5-0.2,0.7-0.4l0,0c0.2-0.1,0.6-0.2,0.9-0.5L69,44
		c0.4-0.2,1-0.2,1.3,0.1l2.6,2.1c0.1,0,0.1,0.1,0.2,0.1l0,0c0.1,0,0.1,0,0.2,0c0.1,0,0.2,0,0.4-0.1c0.1,0,0.1-0.1,0.2-0.2
		c0.9-1.1,1.7-2.1,2.6-3.2c0-0.1,0.1-0.1,0.1-0.2c0-0.1,0-0.2,0-0.2l0,0c0-0.1,0-0.2-0.1-0.4c0-0.1-0.1-0.1-0.2-0.2l-2.4-2.1
		c-0.5-0.4-0.6-1-0.2-1.5c0.1-0.2,0.2-0.5,0.4-0.9s0.2-0.6,0.4-0.9c0.1-0.2,0.1-0.6,0.2-1c0.1-0.4,0.1-0.6,0.2-1
		c0.1-0.5,0.6-0.9,1.1-0.9l3.2-0.4c0.1,0,0.2,0,0.4-0.1c0.1,0,0.1-0.1,0.2-0.1c0-0.1,0.1-0.1,0.1-0.2l0,0c0-0.1,0-0.2,0-0.2
		l-0.6-3.9c0-0.1,0-0.2-0.1-0.4l0,0c0-0.1-0.1-0.1-0.2-0.2c-0.1,0-0.1-0.1-0.2-0.1l0,0c-0.1,0-0.1,0-0.2,0l-2.9,0.2
		c-0.5,0-1-0.2-1.2-0.7c-0.1-0.2-0.2-0.6-0.4-0.9c-0.1-0.2-0.2-0.6-0.4-0.9l0,0c-0.1-0.2-0.2-0.5-0.4-0.7c-0.1-0.2-0.4-0.5-0.5-0.7
		c-0.2-0.5-0.2-1,0.1-1.3l2.1-2.6c0.1-0.1,0.1-0.1,0.1-0.2s0-0.1,0-0.2c0-0.1,0-0.2-0.1-0.4l0,0c0-0.1-0.1-0.1-0.1-0.1l-2.8-2.3
		C71.8,16.9,71.5,16.8,71.4,16.8z"/>
	<polygon class="st1" points="65.2,22.4 56.4,33.2 59.8,33.2 55.2,42 66.8,30.7 62.6,30.5 	"/>
	<path class="st1" d="M54.8,40.2c-2.4-1.8-3.9-4.7-3.9-8c0-5.6,4.5-10.1,10.1-10.1c0.9,0,1.8,0.1,2.6,0.3"/>
	<path class="st1" d="M65.8,23.3c3.2,1.7,5.3,5.1,5.3,8.9c0,5.6-4.5,10.1-10.1,10.1c-1.4,0-2.7-0.3-3.9-0.8"/>
</g>
</svg>
