<?xml version="1.0" encoding="UTF-8"?>
<svg id="Layer_1" xmlns="http://www.w3.org/2000/svg" version="1.1" xmlns:xlink="http://www.w3.org/1999/xlink" viewBox="0 0 1440 664.1">
  <!-- Generator: Adobe Illustrator 29.2.1, SVG Export Plug-In . SVG Version: 2.1.0 Build 116)  -->
  <defs>
    <style>
      .st0 {
        fill: url(#linear-gradient2);
      }

      .st1 {
        fill: #91c5ea;
      }

      .st1, .st2, .st3, .st4, .st5, .st6, .st7, .st8, .st9, .st10, .st11 {
        fill-rule: evenodd;
      }

      .st12 {
        fill: #0f1326;
      }

      .st13 {
        clip-path: url(#clippath-6);
      }

      .st14 {
        clip-path: url(#clippath-7);
      }

      .st2 {
        fill: #f5dccc;
      }

      .st3 {
        fill: #72b2e1;
      }

      .st15 {
        clip-path: url(#clippath-4);
      }

      .st16 {
        fill: #d9d9d8;
      }

      .st4 {
        fill: #f0cbbc;
      }

      .st17 {
        fill: #fff;
      }

      .st18 {
        fill: url(#linear-gradient1);
      }

      .st5 {
        fill: #b1b0b4;
      }

      .st19 {
        fill: #faca0b;
      }

      .st20 {
        fill: none;
      }

      .st21 {
        fill: #683c17;
        opacity: .3;
      }

      .st22 {
        fill: #1c447f;
      }

      .st6 {
        fill: #cca394;
      }

      .st23 {
        clip-path: url(#clippath-1);
      }

      .st24 {
        fill: #39c5f3;
      }

      .st25 {
        clip-path: url(#clippath-5);
      }

      .st26 {
        fill: #666db2;
      }

      .st27 {
        fill: #423f38;
      }

      .st28 {
        clip-path: url(#clippath-8);
      }

      .st7 {
        fill: #d5b3a7;
      }

      .st29 {
        fill: #ebb31f;
      }

      .st30 {
        fill: #bf3c27;
      }

      .st31 {
        clip-path: url(#clippath-3);
      }

      .st32 {
        fill: #9f1d21;
        opacity: .2;
      }

      .st33 {
        opacity: 0;
      }

      .st8 {
        fill: #d1d1d6;
      }

      .st9 {
        fill: #685e69;
      }

      .st34 {
        fill: url(#linear-gradient4);
      }

      .st35 {
        fill: #1d1953;
      }

      .st36 {
        fill: #4b4a4a;
      }

      .st37 {
        fill: #e2a325;
      }

      .st10 {
        fill: #eceff0;
      }

      .st38 {
        fill: url(#linear-gradient3);
      }

      .st39 {
        fill: #604d3c;
      }

      .st40 {
        font-family: Lato-Bold, Lato;
        font-size: 30.3px;
        font-weight: 700;
      }

      .st41 {
        clip-path: url(#clippath-2);
      }

      .st42 {
        font-family: Lato-Regular, Lato;
        font-size: 23px;
      }

      .st43 {
        fill: #dea127;
      }

      .st44 {
        fill: url(#linear-gradient);
      }

      .st45 {
        fill: #7a6a58;
      }

      .st46 {
        clip-path: url(#clippath);
      }

      .st47 {
        fill: #0a6db0;
      }
    </style>
    <clipPath id="clippath">
      <rect class="st20" x="471.3" y="70.8" width="478.4" height="478.4"/>
    </clipPath>
    <clipPath id="clippath-1">
      <rect class="st20" x="725.4" y="304.3" width="223.7" height="244.8"/>
    </clipPath>
    <clipPath id="clippath-2">
      <rect class="st20" x="471.3" y="70.8" width="478.4" height="478.4"/>
    </clipPath>
    <clipPath id="clippath-3">
      <rect class="st20" x="704.8" y="70.8" width="244.8" height="223.7"/>
    </clipPath>
    <clipPath id="clippath-4">
      <rect class="st20" x="471.3" y="70.8" width="478.4" height="478.4"/>
    </clipPath>
    <clipPath id="clippath-5">
      <rect class="st20" x="575" y="181.3" width="266.1" height="259.2"/>
    </clipPath>
    <clipPath id="clippath-6">
      <rect class="st20" x="1257.2" y="93.2" width="88.5" height="88.5"/>
    </clipPath>
    <clipPath id="clippath-7">
      <rect class="st20" x="75.7" y="474.2" width="93.3" height="100.2"/>
    </clipPath>
    <clipPath id="clippath-8">
      <rect class="st20" x="1263.4" y="496.2" width="100.9" height="100.9"/>
    </clipPath>
    <linearGradient id="linear-gradient" x1="79.7" y1="177" x2="160.8" y2="108.3" gradientUnits="userSpaceOnUse">
      <stop offset="0" stop-color="#ed71ab"/>
      <stop offset="1" stop-color="#34a5dd"/>
    </linearGradient>
    <linearGradient id="linear-gradient1" x1="65.6" y1="160.3" x2="146.7" y2="91.6" xlink:href="#linear-gradient"/>
    <linearGradient id="linear-gradient2" x1="65.6" y1="160.4" x2="146.8" y2="91.7" xlink:href="#linear-gradient"/>
    <linearGradient id="linear-gradient3" x1="66.2" y1="161.1" x2="147.4" y2="92.4" xlink:href="#linear-gradient"/>
    <linearGradient id="linear-gradient4" x1="65.4" y1="160.1" x2="146.6" y2="91.4" xlink:href="#linear-gradient"/>
  </defs>
  <text class="st40" transform="translate(166.6 80)"><tspan x="0" y="0">Efficient Route Planning</tspan></text>
  <text class="st40" transform="translate(936.9 80)"><tspan x="0" y="0">Optimizing Efficiency</tspan></text>
  <g>
    <g class="st46">
      <path class="st35" d="M685,70.8h10v47.9l-4.5.5c-26.8,2.8-52.3,11.1-75.8,24.7-59.2,34.2-95.9,97.9-96,166.2v5s-46.6,0-46.6,0v-5c0-32.2,6.3-63.4,18.7-92.8,11.4-26.9,27.4-51.2,47.6-72.2l-29.9-29.9,7.1-7.1,36.9,36.9-3.5,3.5c-42,42-65.6,97.4-66.9,156.6h26.6c.9-33.1,9.9-65.7,26.2-94.6,17.7-31.2,43.5-57.3,74.8-75.3,23.4-13.5,48.8-22.1,75.3-25.5v-38.9"/>
      <polygon class="st35" points="505.3 104.8 545.7 108.5 509 145.2 505.3 104.8"/>
      <path class="st47" d="M471.3,335.7v-10h47.9l.5,4.5c2.8,26.8,11.1,52.3,24.7,75.8,34.2,59.2,97.9,95.9,166.2,96h5v46.6h-5c-32.2,0-63.4-6.3-92.8-18.7-26.9-11.4-51.2-27.4-72.2-47.6l-29.9,29.9-7.1-7.1,36.9-36.9,3.5,3.5c42,42,97.4,65.6,156.6,66.9v-26.6c-33.1-.9-65.7-9.9-94.6-26.2-31.2-17.7-57.3-43.5-75.3-74.8-13.5-23.4-22.1-48.8-25.5-75.3h-38.9"/>
      <polygon class="st47" points="505.3 515.3 509 474.9 545.7 511.6 505.3 515.3"/>
    </g>
    <g class="st23">
      <path class="st22" d="M736.2,549.4h-10v-47.9l4.5-.5c26.8-2.8,52.3-11.1,75.8-24.7,59.2-34.2,95.9-97.9,96-166.2v-5s46.6,0,46.6,0v5c0,32.2-6.3,63.4-18.7,92.8-11.4,26.9-27.4,51.2-47.6,72.2l29.9,29.9-7.1,7.1-36.9-36.9,3.5-3.5c42-42,65.6-97.4,66.9-156.6h-26.6c-.9,33.1-9.9,65.7-26.2,94.6-17.7,31.2-43.5,57.3-74.8,75.3-23.4,13.5-48.8,22.1-75.3,25.5v38.9"/>
    </g>
    <g class="st41">
      <polygon class="st22" points="915.8 515.3 875.4 511.6 912.1 474.9 915.8 515.3"/>
    </g>
    <g class="st31">
      <path class="st24" d="M949.9,284.5v10h-47.9l-.5-4.5c-2.8-26.8-11.1-52.3-24.7-75.8-34.2-59.2-97.9-95.9-166.2-96h-5v-46.6h5c32.2,0,63.4,6.3,92.8,18.7,26.9,11.4,51.2,27.4,72.2,47.6l29.9-29.9,7.1,7.1-36.9,36.9-3.5-3.5c-42-42-97.4-65.6-156.6-66.9v26.6c33.1.9,65.7,9.9,94.6,26.2,31.2,17.7,57.3,43.5,75.3,74.8,13.5,23.4,22.1,48.8,25.5,75.3h38.9"/>
    </g>
    <g class="st15">
      <polygon class="st24" points="915.8 104.8 912.1 145.2 875.4 108.5 915.8 104.8"/>
    </g>
    <g class="st25">
      <rect class="st29" x="603.9" y="216.7" width="208.3" height="169.3"/>
      <path class="st36" d="M603.9,381.3v51.7c0,4.1,3.4,7.5,7.5,7.5h15.3c4.1,0,7.5-3.4,7.5-7.5v-51.7h-30.2Z"/>
      <path class="st36" d="M781.9,381.3v51.7c0,4.1,3.4,7.5,7.5,7.5h15.3c4.1,0,7.5-3.4,7.5-7.5v-51.7h-30.2Z"/>
      <path class="st27" d="M838.2,242.5h-3.6v-3c0-4.8-3.9-8.9-8.6-8.9h-13.9v3.3h13.9c2.9,0,5.3,2.6,5.3,5.7v3h-3.6c-1.6,0-2.8,1.2-2.8,2.8v23.4c0,1.6,1.2,2.8,2.8,2.8h3.6v3.2c0,3-2.4,5.5-5.3,5.5h-13.9v3.3h13.9c4.8,0,8.6-3.9,8.6-8.8v-3.2h3.6c1.6,0,2.8-1.2,2.8-2.8v-23.4c0-1.7-1.2-2.9-2.8-2.9Z"/>
      <path class="st27" d="M590,280c-2.8,0-5.2-2.4-5.2-5.5v-3.2h3.6c1.6,0,2.8-1.2,2.8-2.8v-23.4c0-1.6-1.2-2.8-2.8-2.8h-3.6v-3c0-3.1,2.4-5.7,5.2-5.7h14v-3.2h-14c-4.7,0-8.5,4-8.5,8.9v3h-3.6c-1.6,0-2.8,1.2-2.8,2.8v23.4c0,1.6,1.2,2.8,2.8,2.8h3.6v3.2c0,4.8,3.8,8.8,8.5,8.8h14.3v-3.3h-14.3Z"/>
      <path class="st29" d="M812.2,209.5c0-18.4-46.6-28.2-104.2-28.2s-104.1,9.8-104.1,28.2v7.3h208.3v-7.3Z"/>
      <path class="st27" d="M662.4,183.6c-34.6,3.9-58.5,12.7-58.5,25.8v7.3h58.5v-33.1h0Z"/>
      <path class="st27" d="M753.7,183.6v33.1h58.5v-7.3c0-13.1-23.9-21.9-58.5-25.8Z"/>
      <path class="st29" d="M634.6,205.4c0,.4,0,.9-.1,1.3,0,.4-.2.8-.4,1.2-.2.4-.4.8-.6,1.1-.2.4-.5.7-.8,1-.3.3-.6.6-1,.8s-.7.4-1.1.6c-.4.2-.8.3-1.2.4-.4,0-.9.1-1.3.1s-.9,0-1.3-.1c-.4,0-.8-.2-1.2-.4-.4-.2-.8-.4-1.1-.6-.4-.2-.7-.5-1-.8-.3-.3-.6-.6-.8-1-.2-.4-.4-.7-.6-1.1-.2-.4-.3-.8-.4-1.2,0-.4-.1-.9-.1-1.3s0-.9.1-1.3c0-.4.2-.8.4-1.2.2-.4.4-.8.6-1.1.2-.4.5-.7.8-1,.3-.3.6-.6,1-.8.4-.2.7-.4,1.1-.6.4-.2.8-.3,1.2-.4.4,0,.9-.1,1.3-.1s.9,0,1.3.1c.4,0,.8.2,1.2.4.4.2.8.4,1.1.6.4.2.7.5,1,.8.3.3.6.6.8,1,.2.4.4.7.6,1.1.2.4.3.8.4,1.2,0,.4.1.9.1,1.3Z"/>
      <path class="st30" d="M652.2,205.4c0,.4,0,.9-.1,1.3,0,.4-.2.8-.4,1.2-.2.4-.4.8-.6,1.1-.2.4-.5.7-.8,1-.3.3-.6.6-1,.8s-.7.4-1.1.6c-.4.2-.8.3-1.2.4-.4,0-.9.1-1.3.1s-.9,0-1.3-.1c-.4,0-.8-.2-1.2-.4-.4-.2-.8-.4-1.1-.6s-.7-.5-1-.8c-.3-.3-.6-.6-.8-1-.2-.4-.4-.7-.6-1.1-.2-.4-.3-.8-.4-1.2,0-.4-.1-.9-.1-1.3s0-.9.1-1.3c0-.4.2-.8.4-1.2.2-.4.4-.8.6-1.1s.5-.7.8-1c.3-.3.6-.6,1-.8.4-.2.7-.4,1.1-.6.4-.2.8-.3,1.2-.4.4,0,.9-.1,1.3-.1s.9,0,1.3.1c.4,0,.8.2,1.2.4.4.2.8.4,1.1.6.4.2.7.5,1,.8.3.3.6.6.8,1,.2.4.4.7.6,1.1.2.4.3.8.4,1.2,0,.4.1.9.1,1.3Z"/>
      <path class="st29" d="M793.5,205.4c0,.4,0,.9-.1,1.3,0,.4-.2.8-.4,1.2-.2.4-.4.8-.6,1.1-.2.4-.5.7-.8,1-.3.3-.6.6-1,.8s-.7.4-1.1.6c-.4.2-.8.3-1.2.4-.4,0-.9.1-1.3.1s-.9,0-1.3-.1c-.4,0-.8-.2-1.2-.4-.4-.2-.8-.4-1.1-.6-.4-.2-.7-.5-1-.8-.3-.3-.6-.6-.8-1-.2-.4-.4-.7-.6-1.1-.2-.4-.3-.8-.4-1.2s-.1-.9-.1-1.3,0-.9.1-1.3c0-.4.2-.8.4-1.2.2-.4.4-.8.6-1.1s.5-.7.8-1c.3-.3.6-.6,1-.8.4-.2.7-.4,1.1-.6s.8-.3,1.2-.4c.4,0,.9-.1,1.3-.1s.9,0,1.3.1c.4,0,.8.2,1.2.4.4.2.8.4,1.1.6.4.2.7.5,1,.8.3.3.6.6.8,1,.2.4.4.7.6,1.1.2.4.3.8.4,1.2,0,.4.1.9.1,1.3Z"/>
      <path class="st30" d="M775.9,205.4c0,.4,0,.9-.1,1.3,0,.4-.2.8-.4,1.2-.2.4-.4.8-.6,1.1-.2.4-.5.7-.8,1-.3.3-.6.6-1,.8s-.7.4-1.1.6c-.4.2-.8.3-1.2.4-.4,0-.9.1-1.3.1s-.9,0-1.3-.1c-.4,0-.8-.2-1.2-.4s-.8-.4-1.1-.6-.7-.5-1-.8c-.3-.3-.6-.6-.8-1-.2-.4-.4-.7-.6-1.1-.2-.4-.3-.8-.4-1.2,0-.4-.1-.9-.1-1.3s0-.9.1-1.3c0-.4.2-.8.4-1.2.2-.4.4-.8.6-1.1.2-.4.5-.7.8-1,.3-.3.6-.6,1-.8.4-.2.7-.4,1.1-.6s.8-.3,1.2-.4c.4,0,.9-.1,1.3-.1s.9,0,1.3.1c.4,0,.8.2,1.2.4.4.2.8.4,1.1.6.4.2.7.5,1,.8.3.3.6.6.8,1,.2.4.4.7.6,1.1.2.4.3.8.4,1.2,0,.4.1.9.1,1.3Z"/>
      <path class="st27" d="M674.8,196.6c2.2,0,3.4,1.3,3.4,3.7v.5h-2.2v-.6c0-1-.4-1.5-1.1-1.5s-1.1.4-1.1,1.5c0,3,4.5,3.6,4.5,7.7s-1.2,3.7-3.4,3.7-3.4-1.3-3.4-3.7v-.9h2.2v1c0,1,.5,1.4,1.2,1.4s1.2-.4,1.2-1.4c0-3-4.5-3.6-4.5-7.7,0-2.4,1.1-3.7,3.4-3.7Z"/>
      <path class="st27" d="M686,205.9v1.9c0,2.3-1.2,3.7-3.4,3.7s-3.4-1.3-3.4-3.7v-7.6c0-2.3,1.2-3.7,3.4-3.7s3.4,1.3,3.4,3.7v1.4h-2.2v-1.6c0-1-.5-1.5-1.2-1.5s-1.2.4-1.2,1.5v7.9c0,1,.5,1.4,1.2,1.4s1.2-.4,1.2-1.4v-2.1h2.2Z"/>
      <polygon class="st27" points="689.4 211.4 687.2 211.4 687.2 196.8 689.4 196.8 689.4 203 692 203 692 196.8 694.4 196.8 694.4 211.4 692 211.4 692 205.1 689.4 205.1 689.4 211.4"/>
      <path class="st27" d="M697.9,208c0,1,.5,1.5,1.2,1.5s1.2-.4,1.2-1.5v-7.9c0-1-.5-1.5-1.2-1.5s-1.2.4-1.2,1.5v7.9ZM695.6,200.2c0-2.3,1.2-3.7,3.5-3.7s3.5,1.3,3.5,3.7v7.6c0,2.3-1.2,3.7-3.5,3.7s-3.5-1.3-3.5-3.7v-7.6Z"/>
      <path class="st27" d="M706,208c0,1,.5,1.5,1.2,1.5s1.2-.4,1.2-1.5v-7.9c0-1-.5-1.5-1.2-1.5s-1.2.4-1.2,1.5v7.9ZM703.7,200.2c0-2.3,1.2-3.7,3.5-3.7s3.5,1.3,3.5,3.7v7.6c0,2.3-1.2,3.7-3.5,3.7s-3.5-1.3-3.5-3.7v-7.6Z"/>
      <polygon class="st27" points="712 196.8 714.2 196.8 714.2 209.3 718 209.3 718 211.3 712 211.3 712 196.8"/>
      <path class="st27" d="M724.1,204.8v4.5h1.3c.8,0,1.2-.4,1.2-1.5v-1.3c0-1.3-.4-1.8-1.5-1.8h-1ZM724.1,198.8v3.8h.9c.9,0,1.4-.4,1.4-1.6v-.8c0-1-.4-1.5-1.2-1.5h-1.1ZM728.7,200.1v.5c0,1.5-.5,2.4-1.5,3,1.2.5,1.7,1.6,1.7,3.1v1.2c0,2.2-1.2,3.5-3.5,3.5h-3.6v-14.6h3.5c2.4,0,3.4,1.1,3.4,3.4Z"/>
      <path class="st27" d="M732.2,196.8v11.3c0,1,.5,1.4,1.2,1.4s1.2-.4,1.2-1.4v-11.3h2.2v11.1c0,2.3-1.2,3.7-3.4,3.7s-3.4-1.3-3.4-3.7v-11.1h2.3Z"/>
      <path class="st27" d="M741.2,196.6c2.2,0,3.4,1.3,3.4,3.7v.5h-2.2v-.6c0-1-.4-1.5-1.1-1.5s-1.1.4-1.1,1.5c0,3,4.5,3.6,4.5,7.7s-1.2,3.7-3.4,3.7-3.4-1.3-3.4-3.7v-.9h2.2v1c0,1,.5,1.4,1.2,1.4s1.2-.4,1.2-1.4c0-3-4.5-3.6-4.5-7.7s1.1-3.7,3.4-3.7Z"/>
      <path class="st30" d="M701.1,188.5c0,.4,0,.7-.2,1-.1.3-.3.6-.6.9-.2.2-.5.4-.9.6-.3.1-.7.2-1,.2-.4,0-.7,0-1-.2-.3-.1-.6-.3-.9-.6-.2-.2-.4-.5-.6-.9-.1-.3-.2-.7-.2-1s0-.7.2-1c.1-.3.3-.6.6-.9.2-.2.5-.4.9-.6.3-.1.7-.2,1-.2s.7,0,1,.2c.3.1.6.3.9.6.2.2.4.5.6.9.1.3.2.7.2,1Z"/>
      <path class="st30" d="M710.7,188.5c0,.4,0,.7-.2,1-.1.3-.3.6-.6.9-.2.2-.5.4-.9.6-.3.1-.7.2-1,.2-.4,0-.7,0-1-.2-.3-.1-.6-.3-.9-.6-.2-.2-.4-.5-.6-.9-.1-.3-.2-.7-.2-1s0-.7.2-1c.1-.3.3-.6.6-.9.2-.2.5-.4.9-.6.3-.1.7-.2,1-.2s.7,0,1,.2c.3.1.6.3.9.6.2.2.4.5.6.9.1.3.2.7.2,1Z"/>
      <path class="st30" d="M720.2,188.5c0,.4,0,.7-.2,1-.1.3-.3.6-.6.9-.2.2-.5.4-.9.6-.3.1-.7.2-1,.2-.4,0-.7,0-1-.2s-.6-.3-.9-.6c-.2-.2-.4-.5-.6-.9-.1-.3-.2-.7-.2-1s0-.7.2-1c.1-.3.3-.6.6-.9.2-.2.5-.4.9-.6s.7-.2,1-.2.7,0,1,.2c.3.1.6.3.9.6.2.2.4.5.6.9.1.3.2.7.2,1Z"/>
      <path class="st43" d="M818.3,400.4h-220.6c-2.8,0-5.2-2.3-5.2-5.2v-70.7c0-2.9,2.3-5.2,5.2-5.2h220.6c2.8,0,5.2,2.3,5.2,5.2v70.8c0,2.8-2.3,5.1-5.2,5.1Z"/>
      <path class="st19" d="M823.4,330.2c0-6-4.9-10.9-10.9-10.9h-209c-6,0-10.9,4.9-10.9,10.9v6.5l230.9.6v-7.2Z"/>
      <path class="st30" d="M592.6,350c-2.6,0-4.8,2.2-4.8,4.8v6.8c0,2.6,2.2,4.8,4.8,4.8v-16.5Z"/>
      <path class="st30" d="M823.4,350c2.6,0,4.8,2.2,4.8,4.8v6.8c0,2.6-2.2,4.8-4.8,4.8v-16.5Z"/>
      <rect class="st43" x="633.3" y="308" width="149.4" height="67.4"/>
      <path class="st19" d="M782.7,306.3c0-14.1-33.5-17-74.7-17s-74.7,2.9-74.7,17v1.6h149.4v-1.6Z"/>
      <path class="st37" d="M715,304.1h-13.9c-.8,0-1.4-.6-1.4-1.4s.6-1.4,1.4-1.4h13.9c.8,0,1.4.6,1.4,1.4s-.6,1.4-1.4,1.4Z"/>
      <rect class="st27" x="709.4" y="361.5" width="33.5" height="2.7"/>
      <rect class="st27" x="671.5" y="361.5" width="33.5" height="2.7"/>
      <path class="st27" d="M668.8,361.5h-18.9c-.7,0-1.3.6-1.3,1.3s.6,1.3,1.3,1.3h18.9v-2.7Z"/>
      <path class="st27" d="M766.2,361.5h-20.6v2.7h20.6c.7,0,1.3-.6,1.3-1.3,0-.7-.6-1.3-1.3-1.3Z"/>
      <path class="st27" d="M766.2,354.3h-20.6v2.7h20.6c.7,0,1.3-.6,1.3-1.3,0-.7-.6-1.3-1.3-1.3Z"/>
      <rect class="st27" x="671.5" y="354.3" width="33.5" height="2.7"/>
      <rect class="st27" x="709.4" y="354.3" width="33.5" height="2.7"/>
      <path class="st27" d="M668.8,354.3h-18.9c-.7,0-1.3.6-1.3,1.3s.6,1.3,1.3,1.3h18.9v-2.7Z"/>
      <rect class="st27" x="671.5" y="347.2" width="33.5" height="2.7"/>
      <rect class="st27" x="709.4" y="347.2" width="33.5" height="2.7"/>
      <path class="st27" d="M766.2,347.2h-20.6v2.7h20.6c.7,0,1.3-.6,1.3-1.3,0-.7-.6-1.3-1.3-1.3Z"/>
      <path class="st27" d="M668.8,347.2h-18.9c-.7,0-1.3.6-1.3,1.3s.6,1.3,1.3,1.3h18.9v-2.7Z"/>
      <rect class="st27" x="709.4" y="340.1" width="33.5" height="2.7"/>
      <rect class="st27" x="671.5" y="340.1" width="33.5" height="2.7"/>
      <path class="st27" d="M668.8,340.1h-18.9c-.7,0-1.3.6-1.3,1.3s.6,1.3,1.3,1.3h18.9v-2.7Z"/>
      <path class="st27" d="M766.2,340.1h-20.6v2.7h20.6c.7,0,1.3-.6,1.3-1.3,0-.7-.6-1.3-1.3-1.3Z"/>
      <rect class="st27" x="671.5" y="333" width="33.5" height="2.7"/>
      <rect class="st27" x="709.4" y="333" width="33.5" height="2.7"/>
      <path class="st27" d="M668.8,333h-18.9c-.7,0-1.3.6-1.3,1.3s.6,1.3,1.3,1.3h18.9v-2.7Z"/>
      <path class="st27" d="M766.2,333h-20.6v2.7h20.6c.7,0,1.3-.6,1.3-1.3,0-.8-.6-1.3-1.3-1.3Z"/>
      <rect class="st27" x="709.4" y="325.8" width="33.5" height="2.7"/>
      <rect class="st27" x="671.5" y="325.8" width="33.5" height="2.7"/>
      <path class="st27" d="M766.2,325.8h-20.6v2.7h20.6c.7,0,1.3-.6,1.3-1.3,0-.7-.6-1.3-1.3-1.3Z"/>
      <path class="st27" d="M668.8,325.8h-18.9c-.7,0-1.3.6-1.3,1.3s.6,1.3,1.3,1.3h18.9v-2.7Z"/>
      <rect class="st27" x="709.4" y="318.6" width="33.5" height="2.7"/>
      <rect class="st27" x="671.5" y="318.6" width="33.5" height="2.7"/>
      <path class="st27" d="M766.2,318.6h-20.6v2.7h20.6c.7,0,1.3-.6,1.3-1.3,0-.7-.6-1.3-1.3-1.3Z"/>
      <path class="st27" d="M668.8,318.6h-18.9c-.7,0-1.3.6-1.3,1.3s.6,1.3,1.3,1.3h18.9v-2.7Z"/>
      <path class="st43" d="M625.6,301.8c0,.5,0,1-.1,1.4,0,.5-.2.9-.4,1.4-.2.4-.4.9-.7,1.3-.3.4-.6.8-.9,1.1-.3.3-.7.7-1.1.9-.4.3-.8.5-1.3.7-.4.2-.9.3-1.4.4-.5,0-1,.1-1.4.1s-1,0-1.4-.1c-.5,0-.9-.2-1.4-.4-.4-.2-.9-.4-1.3-.7-.4-.3-.8-.6-1.1-.9-.3-.3-.7-.7-.9-1.1s-.5-.8-.7-1.3c-.2-.4-.3-.9-.4-1.4s-.1-1-.1-1.4,0-1,.1-1.4c0-.5.2-.9.4-1.4s.4-.9.7-1.3c.3-.4.6-.8.9-1.1.3-.3.7-.7,1.1-.9.4-.3.8-.5,1.3-.7.4-.2.9-.3,1.4-.4.5,0,1-.1,1.4-.1.5,0,1,0,1.4.1.5,0,.9.2,1.4.4.4.2.9.4,1.3.7.4.3.8.6,1.1.9.3.3.7.7.9,1.1s.5.8.7,1.3c.2.4.3.9.4,1.4,0,.5.1,1,.1,1.4Z"/>
      <path class="st30" d="M623.6,301.8c0,.4,0,.7-.1,1.1,0,.4-.2.7-.3,1-.1.3-.3.7-.5,1s-.4.6-.7.8-.5.5-.8.7-.6.4-.9.5c-.3.1-.7.2-1,.3-.4,0-.7.1-1.1.1s-.7,0-1.1-.1c-.4,0-.7-.2-1-.3-.3-.1-.6-.3-.9-.5-.3-.2-.6-.4-.8-.7-.3-.3-.5-.5-.7-.8-.2-.3-.4-.6-.5-1-.1-.3-.2-.7-.3-1,0-.4-.1-.7-.1-1.1s0-.7.1-1.1c0-.4.2-.7.3-1s.3-.7.5-1c.2-.3.4-.6.7-.8.3-.3.5-.5.8-.7.3-.2.6-.4.9-.5.3-.1.7-.2,1-.3.4,0,.7-.1,1.1-.1s.7,0,1.1.1c.4,0,.7.2,1,.3.3.1.6.3.9.5s.6.4.8.7c.3.3.5.5.7.8s.4.6.5,1,.2.7.3,1c0,.4.1.7.1,1.1Z"/>
      <path class="st43" d="M805.3,301.8c0,.5,0,1-.1,1.4s-.2.9-.4,1.4c-.2.4-.4.9-.7,1.3-.3.4-.6.8-.9,1.1-.3.3-.7.7-1.1.9-.4.3-.8.5-1.3.7-.4.2-.9.3-1.4.4-.5,0-1,.1-1.4.1s-1,0-1.4-.1c-.5,0-.9-.2-1.4-.4-.4-.2-.9-.4-1.3-.7-.4-.3-.8-.6-1.1-.9s-.7-.7-.9-1.1-.5-.8-.7-1.3c-.2-.4-.3-.9-.4-1.4,0-.5-.1-1-.1-1.4s0-1,.1-1.4c0-.5.2-.9.4-1.4s.4-.9.7-1.3c.3-.4.6-.8.9-1.1s.7-.7,1.1-.9c.4-.3.8-.5,1.3-.7.4-.2.9-.3,1.4-.4.5,0,1-.1,1.4-.1.5,0,1,0,1.4.1.5,0,.9.2,1.4.4.4.2.9.4,1.3.7.4.3.8.6,1.1.9.3.3.7.7.9,1.1s.5.8.7,1.3c.2.4.3.9.4,1.4,0,.5.1,1,.1,1.4Z"/>
      <path class="st30" d="M803.4,301.8c0,.4,0,.7-.1,1.1s-.2.7-.3,1c-.1.3-.3.7-.5,1-.2.3-.4.6-.7.8-.3.3-.5.5-.8.7s-.6.4-.9.5-.7.2-1,.3c-.4,0-.7.1-1.1.1s-.7,0-1.1-.1c-.4,0-.7-.2-1-.3s-.6-.3-.9-.5-.6-.4-.8-.7-.5-.5-.7-.8c-.2-.3-.4-.6-.5-1-.1-.3-.2-.7-.3-1,0-.4-.1-.7-.1-1.1s0-.7.1-1.1c0-.4.2-.7.3-1s.3-.7.5-1c.2-.3.4-.6.7-.8.3-.3.5-.5.8-.7s.6-.4.9-.5c.3-.1.7-.2,1-.3s.7-.1,1.1-.1.7,0,1.1.1.7.2,1,.3c.3.1.6.3.9.5s.6.4.8.7c.3.3.5.5.7.8s.4.6.5,1c.1.3.2.7.3,1,0,.4.1.7.1,1.1Z"/>
      <rect class="st39" x="710.3" y="224" width="94.3" height="59.3"/>
      <polygon class="st45" points="710.3 283.3 728.1 283.3 779.3 224 761.5 224 710.3 283.3"/>
      <polygon class="st45" points="776.1 283.3 804.7 283.3 804.7 250.4 776.1 283.3"/>
      <polygon class="st45" points="738.5 283.3 743.7 283.3 794.9 224 789.6 224 738.5 283.3"/>
      <rect class="st39" x="611.5" y="224" width="94.2" height="59.3"/>
      <polygon class="st45" points="652 224 611.5 271.2 611.5 283.3 611.4 283.3 662.6 224 652 224"/>
      <polygon class="st45" points="618.1 283.3 654.4 283.3 705.7 224 669.2 224 618.1 283.3"/>
      <rect class="st21" x="611.5" y="224" width="193.1" height="5.3"/>
      <path class="st27" d="M825.7,400.6h-235.4c-.9,0-1.6-.7-1.6-1.6v-17.8c0-.8.7-1.6,1.6-1.6h235.4c.8,0,1.6.7,1.6,1.6v17.8c0,.9-.7,1.6-1.6,1.6Z"/>
      <path class="st29" d="M719.9,395.6h-23.8c-.5,0-1-.4-1-1v-9c0-.5.4-1,1-1h23.8c.5,0,1,.4,1,1v9.1c0,.5-.5.9-1,.9Z"/>
      <path class="st43" d="M814.1,224h-212.2c-.8,0-1.6-.7-1.6-1.6v-4c0-.9.7-1.6,1.6-1.6h212.2c.8,0,1.6.7,1.6,1.6v4c0,.8-.7,1.6-1.6,1.6Z"/>
      <path class="st32" d="M811.6,358.2c0,.5,0,1,0,1.5s-.1,1-.2,1.4c0,.5-.2.9-.4,1.4-.1.5-.3.9-.5,1.4-.2.4-.4.9-.6,1.3-.2.4-.5.8-.7,1.2-.3.4-.6.8-.9,1.2s-.6.7-1,1.1c-.3.3-.7.7-1.1,1-.4.3-.8.6-1.2.9-.4.3-.8.5-1.2.7s-.9.4-1.3.6c-.4.2-.9.3-1.4.5-.5.1-.9.3-1.4.4-.5,0-1,.2-1.4.2-.5,0-1,0-1.5,0s-1,0-1.5,0c-.5,0-1-.1-1.4-.2-.5,0-.9-.2-1.4-.4-.5-.1-.9-.3-1.4-.5-.4-.2-.9-.4-1.3-.6-.4-.2-.8-.5-1.2-.7-.4-.3-.8-.6-1.2-.9-.4-.3-.7-.6-1.1-1-.3-.3-.7-.7-1-1.1-.3-.4-.6-.8-.9-1.2-.3-.4-.5-.8-.7-1.2-.2-.4-.4-.9-.6-1.3-.2-.4-.3-.9-.5-1.4-.1-.5-.3-.9-.4-1.4,0-.5-.2-1-.2-1.4,0-.5,0-1,0-1.5s0-1,0-1.5c0-.5.1-1,.2-1.4,0-.5.2-.9.4-1.4.1-.5.3-.9.5-1.4.2-.4.4-.9.6-1.3.2-.4.5-.8.7-1.2.3-.4.6-.8.9-1.2.3-.4.6-.7,1-1.1.3-.3.7-.7,1.1-1,.4-.3.8-.6,1.2-.9.4-.3.8-.5,1.2-.7.4-.2.9-.4,1.3-.6.4-.2.9-.3,1.4-.5s.9-.3,1.4-.4c.5,0,1-.2,1.4-.2.5,0,1,0,1.5,0s1,0,1.5,0c.5,0,1,.1,1.4.2.5,0,.9.2,1.4.4.5.1.9.3,1.4.5s.9.4,1.3.6c.4.2.8.5,1.2.7.4.3.8.6,1.2.9.4.3.7.6,1.1,1,.3.3.7.7,1,1.1.3.4.6.8.9,1.2.3.4.5.8.7,1.2.2.4.4.9.6,1.3.2.4.3.9.5,1.4.1.5.3.9.4,1.4,0,.5.2,1,.2,1.4,0,.5,0,1,0,1.5Z"/>
      <path class="st16" d="M799.5,346.8c.7.2,1.5.4,2.2.7.7.3,1.4.7,2,1.2.6.4,1.2,1,1.7,1.5s1,1.2,1.4,1.8.7,1.3,1,2.1c.3.7.5,1.5.6,2.2.1.8.2,1.5.1,2.3,0,.8-.1,1.5-.3,2.3-.2.7-.4,1.5-.7,2.2-.3.7-.7,1.4-1.1,2-.4.6-1,1.2-1.5,1.7-.6.5-1.2,1-1.8,1.4-.7.4-1.3.7-2.1,1-.7.3-1.5.5-2.2.6-.8.1-1.5.2-2.3.1-.8,0-1.5-.1-2.3-.3-.7-.2-1.5-.4-2.2-.7-.7-.3-1.4-.7-2-1.2-.6-.4-1.2-1-1.7-1.5-.5-.6-1-1.2-1.4-1.8s-.7-1.3-1-2.1c-.3-.7-.5-1.5-.6-2.2-.1-.8-.2-1.5-.1-2.3,0-.8.1-1.5.3-2.3.2-.7.4-1.5.7-2.2.3-.7.7-1.4,1.1-2s1-1.2,1.5-1.7c.6-.5,1.2-1,1.8-1.4.7-.4,1.3-.7,2.1-1,.7-.3,1.5-.5,2.2-.6s1.5-.2,2.3-.1c.8,0,1.5.1,2.3.3Z"/>
      <path class="st17" d="M796.8,354.1c0,2.3-1.9,4.1-4.1,4.1s-4.1-1.9-4.1-4.1,1.9-4.1,4.1-4.1,4.1,1.9,4.1,4.1Z"/>
      <path class="st32" d="M634,358.2c0,.5,0,1,0,1.5s-.1,1-.2,1.4c0,.5-.2.9-.4,1.4-.1.5-.3.9-.5,1.4-.2.4-.4.9-.6,1.3-.2.4-.5.8-.7,1.2-.3.4-.6.8-.9,1.2-.3.4-.6.7-1,1.1-.3.3-.7.7-1.1,1-.4.3-.8.6-1.2.9-.4.3-.8.5-1.2.7-.4.2-.9.4-1.3.6-.4.2-.9.3-1.4.5-.5.1-.9.3-1.4.4-.5,0-1,.2-1.4.2s-1,0-1.5,0-1,0-1.5,0c-.5,0-1-.1-1.4-.2-.5,0-.9-.2-1.4-.4-.5-.1-.9-.3-1.4-.5-.4-.2-.9-.4-1.3-.6-.4-.2-.8-.5-1.2-.7-.4-.3-.8-.6-1.2-.9-.4-.3-.7-.6-1.1-1-.3-.3-.7-.7-1-1.1-.3-.4-.6-.8-.9-1.2-.3-.4-.5-.8-.7-1.2-.2-.4-.4-.9-.6-1.3-.2-.4-.3-.9-.5-1.4-.1-.5-.3-.9-.4-1.4,0-.5-.2-1-.2-1.4s0-1,0-1.5,0-1,0-1.5c0-.5.1-1,.2-1.4,0-.5.2-.9.4-1.4.1-.5.3-.9.5-1.4.2-.4.4-.9.6-1.3.2-.4.5-.8.7-1.2.3-.4.6-.8.9-1.2.3-.4.6-.7,1-1.1.3-.3.7-.7,1.1-1,.4-.3.8-.6,1.2-.9.4-.3.8-.5,1.2-.7.4-.2.9-.4,1.3-.6.4-.2.9-.3,1.4-.5s.9-.3,1.4-.4c.5,0,1-.2,1.4-.2.5,0,1,0,1.5,0s1,0,1.5,0c.5,0,1,.1,1.4.2.5,0,.9.2,1.4.4.5.1.9.3,1.4.5s.9.4,1.3.6c.4.2.8.5,1.2.7.4.3.8.6,1.2.9.4.3.7.6,1.1,1,.3.3.7.7,1,1.1.3.4.6.8.9,1.2.3.4.5.8.7,1.2.2.4.4.9.6,1.3.2.4.3.9.5,1.4.1.5.3.9.4,1.4,0,.5.2,1,.2,1.4,0,.5,0,1,0,1.5Z"/>
      <path class="st16" d="M626.7,349.2c.6.5,1.1,1,1.6,1.6.5.6.9,1.2,1.3,1.9.4.7.7,1.4.9,2.1.2.7.4,1.5.4,2.3s0,1.5,0,2.3c0,.8-.2,1.5-.5,2.3-.2.7-.5,1.4-.9,2.1-.4.7-.8,1.3-1.3,1.9-.5.6-1,1.1-1.6,1.6-.6.5-1.2.9-1.9,1.3-.7.4-1.4.7-2.1.9-.7.2-1.5.4-2.3.4-.8,0-1.5,0-2.3,0s-1.5-.2-2.2-.5c-.7-.2-1.4-.5-2.1-.9-.7-.4-1.3-.8-1.9-1.3-.6-.5-1.1-1-1.6-1.6-.5-.6-.9-1.2-1.3-1.9s-.7-1.4-.9-2.1c-.2-.7-.4-1.5-.4-2.3,0-.8,0-1.5,0-2.3s.2-1.5.5-2.3c.2-.7.5-1.4.9-2.1.4-.7.8-1.3,1.3-1.9.5-.6,1-1.1,1.6-1.6.6-.5,1.2-.9,1.9-1.3.7-.4,1.4-.7,2.1-.9.7-.2,1.5-.4,2.3-.4s1.5,0,2.3,0c.8,0,1.5.2,2.2.5.7.2,1.4.5,2.1.9.7.4,1.3.8,1.9,1.3Z"/>
      <path class="st17" d="M619.2,354.1c0,2.3-1.9,4.1-4.1,4.1s-4.1-1.9-4.1-4.1,1.9-4.1,4.1-4.1,4.1,1.9,4.1,4.1Z"/>
    </g>
    <rect class="st33" x="575" y="181.3" width="266.3" height="259"/>
  </g>
  <g class="st13">
    <path class="st11" d="M1258.9,112.8v55.8c0,4.6,3.7,8.2,8.1,8.2h68.7c4.5,0,8.2-3.6,8.2-8.2v-55.8h-85ZM1335.7,178.5h-68.7c-5.4,0-9.9-4.5-9.9-10v-56.7c0-.5.4-.8.9-.8h86.7c.5,0,.9.4.9.8v56.7c0,5.5-4.5,10-10,10Z"/>
    <path class="st11" d="M1344.8,112.8c-.5,0-.9-.4-.9-.9v-7.4c0-3.6-2.9-6.5-6.5-6.5h-72c-3.6,0-6.5,3-6.5,6.5v7.4c0,.5-.4.9-.8.9s-.9-.4-.9-.9v-7.4c0-4.6,3.7-8.3,8.2-8.3h72c4.6,0,8.3,3.7,8.3,8.3v7.4c0,.5-.4.9-.9.9Z"/>
    <path class="st11" d="M1268.6,101.8c-1.5,0-2.6,1.2-2.6,2.7s1.2,2.7,2.6,2.7,2.8-1.2,2.8-2.7-1.2-2.7-2.8-2.7ZM1268.6,108.9c-2.4,0-4.4-1.9-4.4-4.4s2-4.4,4.4-4.4,4.5,2,4.5,4.4-2,4.4-4.5,4.4Z"/>
    <path class="st11" d="M1279.7,101.8c-1.5,0-2.7,1.2-2.7,2.7s1.2,2.7,2.7,2.7,2.7-1.2,2.7-2.7-1.2-2.7-2.7-2.7ZM1279.7,108.9c-2.4,0-4.4-2-4.4-4.4s2-4.4,4.4-4.4,4.5,2,4.5,4.4-2,4.4-4.5,4.4Z"/>
    <path class="st11" d="M1290.9,101.8c-1.5,0-2.7,1.2-2.7,2.7s1.2,2.7,2.7,2.7,2.6-1.2,2.6-2.7-1.2-2.7-2.6-2.7ZM1290.9,108.9c-2.4,0-4.5-2-4.5-4.4s2-4.4,4.5-4.4,4.4,2,4.4,4.4-2,4.4-4.4,4.4Z"/>
    <path class="st11" d="M1307.7,105.8h30.9v-2.4h-30.9v2.4ZM1339.4,107.5h-32.6c-.5,0-.9-.4-.9-.9v-4.2c0-.5.4-.8.9-.8h32.6c.5,0,.9.4.9.8v4.2c0,.5-.4.9-.9.9Z"/>
    <path class="st11" d="M1301.4,112.8c-.5,0-.9-.4-.9-.9v-14.7c0-.5.4-.9.9-.9s.8.4.8.9v14.7c0,.5-.4.9-.8.9Z"/>
    <path class="st11" d="M1290.1,172.7h-7.1c-.5,0-.9-.4-.9-.9v-3.2c-2.1-.5-4.3-1.3-6.2-2.5l-2.2,2.2c-.3.4-.9.4-1.2,0l-5-5c-.2-.2-.3-.4-.3-.6s0-.4.3-.6l2.3-2.3c-1.2-1.9-2.1-3.9-2.5-6.1h-3.3c-.5,0-.8-.4-.8-.8v-7.1c0-.5.4-.9.8-.9h3.3c.5-2.1,1.3-4.3,2.5-6.2l-2.3-2.2c-.2-.2-.3-.4-.3-.6s0-.5.3-.6l5-5c.2-.2.4-.3.6-.3s.5.1.6.3l2.3,2.3c1.9-1.2,4-2.1,6.1-2.5v-3.2c0-.5.4-.9.9-.9h7.1c.5,0,.9.4.9.9v3.2c1.8.4,3.4,1,4.9,1.9.4.3.6.8.3,1.2-.2.4-.7.6-1.1.3-1.5-.8-3.3-1.5-5.1-1.8-.4,0-.7-.4-.7-.8v-3.1h-5.3v3.1c0,.4-.3.8-.7.8-2.4.5-4.7,1.4-6.8,2.9-.4.2-.8.2-1.1-.1l-2.1-2.2-3.8,3.8,2.2,2.1c.3.3.4.8.1,1.1-1.4,2.1-2.4,4.5-2.8,6.9-.1.4-.5.7-.9.7h-3.1v5.4h3.1c.4,0,.8.3.9.7.4,2.4,1.4,4.7,2.8,6.7.3.4.2.8-.1,1.1l-2.2,2.2,3.8,3.8,2.1-2.1c.3-.3.8-.4,1.1-.1,2.1,1.4,4.4,2.4,6.8,2.8.4,0,.7.4.7.8v3.1h5.3v-3.1c0-.4.3-.8.7-.8,2.4-.4,4.8-1.4,6.8-2.8.4-.3.8-.2,1.1.1l2.1,2.1,3.8-3.8-2-2c-.3-.3-.4-.9,0-1.2.3-.4.9-.4,1.2,0l2.6,2.6c.2.2.3.4.3.6s0,.5-.3.6l-5,5c-.4.4-.9.4-1.2,0l-2.2-2.2c-1.9,1.2-4,2.1-6.2,2.5v3.2c0,.5-.4.9-.9.9Z"/>
    <path class="st11" d="M1292.6,160.9c-.5,0-.9-.4-.9-.9v-15.7h-5.4v15.7c0,.5-.4.9-.9.9s-.9-.4-.9-.9v-16.6c0-.5.4-.9.9-.9h7.2c.5,0,.9.4.9.9v16.6c0,.5-.4.9-.9.9Z"/>
    <path class="st11" d="M1302.7,160.9c-.5,0-.9-.4-.9-.9v-29.6h-5.4v29.6c0,.5-.4.9-.9.9s-.9-.4-.9-.9v-30.5c0-.5.4-.9.9-.9h7.2c.5,0,.8.4.8.9v30.5c0,.5-.4.9-.8.9Z"/>
    <path class="st11" d="M1322.7,160.9c-.5,0-.8-.4-.8-.9v-15.7h-5.4v15.7c0,.5-.4.9-.8.9s-.9-.4-.9-.9v-16.6c0-.5.4-.9.9-.9h7.1c.5,0,.9.4.9.9v16.6c0,.5-.4.9-.9.9Z"/>
    <path class="st11" d="M1312.7,160.9c-.5,0-.9-.4-.9-.9v-15.7h-5.4v15.7c0,.5-.4.9-.8.9s-.9-.4-.9-.9v-16.6c0-.5.4-.9.9-.9h7.2c.5,0,.8.4.8.9v16.6c0,.5-.4.9-.8.9Z"/>
    <path class="st11" d="M1327.4,160.9h-46.8c-.5,0-.8-.4-.8-.9s.4-.8.8-.8h46.8c.5,0,.9.4.9.8s-.4.9-.9.9Z"/>
    <path class="st11" d="M1327.6,118.6h-13.9c-.5,0-.9-.4-.9-.9s.4-.9.9-.9h13.9c.5,0,.9.4.9.9s-.4.9-.9.9Z"/>
    <path class="st11" d="M1331.2,123.4h-17.5c-.5,0-.9-.4-.9-.9s.4-.9.9-.9h17.5c.5,0,.9.4.9.9s-.4.9-.9.9Z"/>
    <path class="st11" d="M1334.2,128h-20.4c-.5,0-.9-.4-.9-.9s.4-.9.9-.9h20.4c.5,0,.9.4.9.9s-.4.9-.9.9Z"/>
    <path class="st11" d="M1336.6,132.7h-22.9c-.5,0-.9-.4-.9-.9s.4-.9.9-.9h22.9c.5,0,.9.4.9.9s-.4.9-.9.9Z"/>
    <path class="st11" d="M1338.9,137.4h-25.2c-.5,0-.9-.4-.9-.9s.4-.9.9-.9h25.2c.5,0,.9.4.9.9s-.4.9-.9.9Z"/>
  </g>
  <g class="st14">
    <path class="st12" d="M144,574.4h-56.6c-.9,0-1.7-.8-1.7-1.7s.7-1.7,1.7-1.7h56.6c2.7,0,5-2.3,5-5v-20c0-.9.7-1.7,1.7-1.7s1.7.8,1.7,1.7v20c0,4.6-3.7,8.4-8.3,8.4Z"/>
    <path class="st12" d="M94,542.3c-.9,0-1.7-.8-1.7-1.7v-58.1c0-4.6,3.7-8.4,8.3-8.4h43.3c4.6,0,8.3,3.7,8.3,8.4v10c0,.9-.7,1.7-1.7,1.7s-1.7-.8-1.7-1.7v-10c0-2.8-2.2-5-5-5h-43.3c-2.7,0-5,2.3-5,5v58.1c0,.9-.7,1.7-1.7,1.7Z"/>
    <path class="st12" d="M150.6,511c-2.7,0-5,2.3-5,5s2.2,5,5,5,5-2.3,5-5-2.2-5-5-5ZM150.6,524.3c-4.6,0-8.3-3.7-8.3-8.4s3.7-8.4,8.3-8.4,8.3,3.7,8.3,8.4-3.7,8.4-8.3,8.4Z"/>
    <path class="st12" d="M127.3,484.2h-10c-.9,0-1.7-.8-1.7-1.7s.7-1.7,1.7-1.7h10c.9,0,1.7.8,1.7,1.7s-.7,1.7-1.7,1.7Z"/>
    <path class="st12" d="M122.3,559.4c-1.4,0-2.5,1.1-2.5,2.5s1.1,2.5,2.5,2.5,2.5-1.1,2.5-2.5-1.1-2.5-2.5-2.5ZM122.3,567.8c-3.2,0-5.8-2.6-5.8-5.8s2.6-5.8,5.8-5.8,5.8,2.6,5.8,5.8-2.6,5.8-5.8,5.8Z"/>
    <path class="st26" d="M110.2,542.9l-10.7,11c2.9,2.6,4.4,6.5,3.8,10.6-.8,5.6-5.8,9.9-11.6,9.9h-14.2c-.9,0-1.7-.8-1.7-1.7v-31.5c0-6,1.8-11.7,5.3-16.5l11.4-16v5.7l-8.7,12.2c-3,4.3-4.6,9.3-4.6,14.6v29.9h12.6c4.1,0,7.7-3,8.3-7,.5-3.4-1-6.8-3.8-8.5,0,0,0,0-.1-.1,0,0,0,0-.1-.1,0,0,0,0,0-.1,0,0-.1-.2-.2-.3,0-.1,0-.2-.1-.3,0-.1,0-.2,0-.3v-.3c0-.1,0-.2,0-.3,0-.1,0-.2.1-.3,0,0,0,0,0-.1,0,0,0,0,.1-.1,0,0,0-.1,0-.2l12.1-12.4c.8-.8,1.2-1.9,1.2-3.1,0-1.2-.5-2.2-1.3-3-1.5-1.4-4.1-1.3-5.7.4l-6.6,6.7h0c0,0-.3.4-.3.4l-6.7,6.9c-.6.7-1.7.7-2.3,0-.7-.6-.7-1.7,0-2.4l6.4-6.6,3.3-3.4,3.9-4c2.8-2.9,7.5-3.1,10.3-.5,1.5,1.4,2.4,3.3,2.4,5.4,0,2-.7,4.1-2.1,5.5h0Z"/>
    <path class="st26" d="M150.6,500.9c-8.3,0-15,6.7-15,15s10,16.7,15,21.2c5-4.5,15-14.8,15-21.2s-6.7-15-15-15h0ZM150.6,541c-.4,0-.8-.1-1.1-.4-.7-.6-17.2-14.8-17.2-24.7s8.2-18.4,18.3-18.4,18.3,8.2,18.3,18.4-16.5,24.1-17.2,24.7c-.3.3-.7.4-1.1.4Z"/>
  </g>
  <g class="st28">
    <path class="st1" d="M1313.9,496.2l21.9,9.4v17.8c0,13-9.3,23.1-21.9,25.3-12.6-2.2-21.9-12.3-21.9-25.3v-17.8l21.9-9.4Z"/>
    <path class="st3" d="M1313.9,496.2l21.9,9.4v17.8c0,13-9.3,23.1-21.9,25.3-.5,0-1-.2-1.5-.3,11.8-2.7,20.4-12.5,20.4-25v-17.8l-20.4-8.8,1.5-.6Z"/>
    <path class="st10" d="M1313.9,502.6l-16.1,6.9v13.9c0,9.8,6.8,17.3,16.1,19.3,9.3-2,16.1-9.5,16.1-19.3v-13.9l-16.1-6.9Z"/>
    <path class="st8" d="M1313.9,502.6l-16.1,6.9v13.9c0,9.8,6.8,17.3,16.1,19.3.4,0,.8-.2,1.3-.3-8.7-2.4-14.8-9.6-14.8-19v-13.9l14.8-6.4-1.3-.5Z"/>
    <path class="st1" d="M1311.5,524l8.8-8.9c1-1.1,2.7-1.1,3.8,0,1,1,1,2.7,0,3.8-3.6,3.6-7.1,7.2-10.7,10.8-1,1-2.7,1-3.8,0l-5.9-5.9c-1-1-1-2.7,0-3.8,1-1,2.7-1,3.8,0l4,4Z"/>
    <path class="st2" d="M1330.1,580.7l2.6,1.5c2.2,1.2,5,.4,6.2-1.8,1.2-2.2.4-5-1.8-6.2,2.2,1.2,5,.4,6.2-1.8.7-1.3.7-2.9,0-4.2l.7-.3-30.9-24.6c-8.8-6-14.9,1.7-21-1.7l-8-3.7c-1.4-.6-3,0-3.6,1.3l-8.6,18.4c-.3.7-.4,1.4,0,2.1.3.7.7,1.2,1.4,1.5,2.9,1.3,7.2,3.3,8.1,3.6,2.7,1.1,1.8,5.4,3.3,7.3,2.3,3,2.7,5.2,4.7,6.4l28.7,16.5c2.2,1.3,5,.4,6.2-1.8,1.2-2.2.4-5-1.8-6.2l3.1,1.7c2.2,1.2,5,.4,6.2-1.8,1.2-2.2.4-5-1.8-6.2Z"/>
    <path class="st4" d="M1314.1,543.9l-.9-.7c-8.8-6-14.9,1.7-21-1.7l-8-3.7c-1.4-.6-3,0-3.6,1.3l-1.9,4.1c1.9-1,4.2-.4,6.7,1.1,12,7.2,16.1-.6,25.5,2.7.4-.4.7-.7,1.1-1.1.7-.7,1.4-1.4,2.2-2Z"/>
    <path class="st4" d="M1314.5,582.2c-.5-.7-.6-1.6-.2-2.4.6-1,1.9-1.4,3-.8l14.4,8.2c-1.3,2-3.9,2.7-6,1.5l-2.8-1.6-7.1-4c-.5-.3-.9-.4-1.3-.9ZM1328.6,579.8l-10.1-5.8c-1-.6-1.4-1.9-.8-3,.6-1,1.9-1.4,3-.8l18.2,10.4c-1.3,2-3.9,2.6-6,1.5l-4.2-2.3ZM1335.6,573.2l1.6.9c2.1,1.2,4.7.5,6-1.5l-14.8-8.4c-1-.6-2.4-.2-3,.8-.6,1-.2,2.4.8,3,3.1,1.8,9.4,5.3,9.3,5.3ZM1314.4,592.8l3.7,2.1c2.1,1.2,4.8.4,6.1-1.6l-7.8-4.4-2.1,3.9Z"/>
    <path class="st8" d="M1277.5,530.4l-13.4,30.3c-.6,1.5,0,3.2,1.5,3.8l5.8,2.6c1.5.6,3.2,0,3.8-1.5l13.4-30.3c.6-1.5,0-3.2-1.5-3.8l-5.8-2.6c-1.5-.6-3.2,0-3.8,1.5Z"/>
    <path class="st5" d="M1272.9,564.5c-.6,1.5-2.4,2.1-3.8,1.5l2.4,1c1.5.6,3.2,0,3.8-1.5,4.5-10.1,8.9-20.2,13.4-30.3.6-1.4,0-3-1.2-3.7-4.8,11-9.7,22-14.5,32.9Z"/>
    <path class="st9" d="M1281.9,533.7c1.1,0,1.9,1,1.9,2.1,0,1.1-1,1.9-2.1,1.9-1.1,0-1.9-1-1.9-2.1,0-1.1,1-1.9,2.1-1.9Z"/>
    <path class="st7" d="M1309.8,583.4c1.4-1.6,3.8-2,5.7-1,.6.3,1.1.8,1.6,1.4,1.1,1.5,1.2,3.4.4,5l-2.8,5.2c-1.2,2.3-4.1,3.2-6.4,1.9-1.8-1-2.7-3-2.4-5-1.3,1.9-3.9,2.5-6,1.4-1.8-1-2.7-2.9-2.4-4.9-1.2,2.3-4.1,3.2-6.4,2-2.3-1.2-3.1-4.1-1.9-6.4l.9-1.6c-1.4,1.3-3.6,1.6-5.4.7-2.3-1.2-3.1-4.1-1.9-6.4l2.9-5.4c1.2-2.3,4.1-3.1,6.4-1.9,2.2,1.2,3.1,3.9,2.1,6.1,1.4-1.3,3.6-1.7,5.4-.7,1.9,1,2.9,3.3,2.3,5.3,1.4-1.6,3.8-2,5.7-1,1.9,1,2.9,3.3,2.3,5.3Z"/>
    <path class="st6" d="M1305.9,590.9c-1.3,1.9-3.9,2.5-6,1.4-.2,0-.3-.2-.4-.3.8-.3,1.5-.9,1.9-1.8l5.4-10.5c.4-.7.3-1.4,0-2,.2,0,.5.2.7.3,1.9,1,2.9,3.3,2.3,5.3l-3.9,7.5ZM1315,582.2c.2,0,.4.1.5.2.6.3,1.1.8,1.6,1.4,1.1,1.5,1.2,3.4.4,5l-2.8,5.2c-1.2,2.3-4.1,3.2-6.4,1.9,0,0,0,0,0,0,.5-.2.8-.4.9-.7l5.8-11.3c.2-.4.3-1.1,0-1.7ZM1297.4,587.5l4.3-8.4c.5-2-.4-4.3-2.3-5.3-.2-.1-.5-.2-.7-.3.4.9.2,1.7.1,1.8l-6.5,12.6c-.2.4-1.1,1-1.9,1.1.2.2.4.3.6.4,2.3,1.3,5.2.3,6.4-2ZM1290,581.4c-1.4,1.3-3.6,1.6-5.4.7-.4-.2-.7-.5-1.1-.8,1.4,0,2.1-1.1,2.7-2.2l4.9-8.7c.4-.7.4-1.6.1-2.3.2,0,.4.2.6.3,2.2,1.2,3.1,3.9,2.1,6.1l-4,7Z"/>
    <path class="st7" d="M1325.7,557.1l15.8,9c.8.5,1.5,1.2,1.9,2l8.9-3.7c1.4-.6,2-2.1,1.5-3.5l-7.4-19.2c-.3-.8-.8-1.3-1.6-1.6-.8-.3-1.5-.2-2.2.2l-5.3,2.9c-6.4,3.3-12.5-7.8-24,0-1.5,1-2.9,2.3-4.2,3.5-3.2,3.2-7.1,6.1-11.5,8.7-.1,0-.2.2-.3.4,0,.2,0,.3.1.4,9.1,11.8,20.3-3.8,28.4.8Z"/>
    <path class="st6" d="M1298.6,557.7c8.9,9,19.4-5,27.1-.6-12.3-8.3-16.8,2.6-27.1.6ZM1338,564.1l3.5,2c.8.5,1.5,1.2,1.9,2l8.9-3.7c1.4-.6,2-2.1,1.5-3.5l-2.2-5.6c.1,1.8-.3,3.4-2.2,4.1l-11.5,4.7Z"/>
    <path class="st8" d="M1351.8,532.5l11.9,30.9c.6,1.5-.2,3.2-1.7,3.8l-5.9,2.3c-1.5.6-3.2-.2-3.8-1.7l-11.9-30.9c-.6-1.5.2-3.2,1.7-3.8l5.9-2.3c1.5-.6,3.2.2,3.8,1.7Z"/>
    <path class="st5" d="M1341.6,533.4c-1.2.7-1.7,2.2-1.2,3.5l11.9,30.9c.6,1.5,2.3,2.2,3.8,1.7l2.2-.9h0c-1.5.6-3.2-.2-3.8-1.7-4.3-11.2-8.6-22.4-13-33.5Z"/>
    <path class="st9" d="M1347.2,539.6c1.1,0,2-.9,2-2s-.9-2-2-2-2,.9-2,2,.9,2,2,2Z"/>
  </g>
  <text class="st42" transform="translate(183 117.4)"><tspan x="0" y="0">Enhance school bus efficiency</tspan><tspan x="31.1" y="27.7">with accurate and efficient</tspan><tspan x="151.1" y="55.3">route planning</tspan></text>
  <text class="st42" transform="translate(927.3 126.7)"><tspan x="0" y="0">Optimizing efficiency improves</tspan><tspan x="0" y="27.7">operations and maximizes</tspan><tspan x="0" y="55.3">resource utilization daily</tspan></text>
  <text class="st40" transform="translate(930.6 496)"><tspan x="0" y="0">Economical and Reliable</tspan></text>
  <text class="st42" transform="translate(930.6 538)"><tspan x="0" y="0">Economical and reliable solutions</tspan><tspan x="0" y="27.7">ensure cost-effective</tspan><tspan x="0" y="55.3">transportation management</tspan></text>
  <text class="st40" transform="translate(235.3 496)"><tspan x="0" y="0">Real-time Updates</tspan></text>
  <text class="st42" transform="translate(191.1 538)"><tspan x="0" y="0">Receive real-time updates for</tspan><tspan x="-11" y="27.7">improved decision-making and</tspan><tspan x="99.7" y="55.3">efficient operations</tspan></text>
  <g>
    <path class="st44" d="M142.5,82.3c.4.1.9.1,1.3.2,7.7,1.3,13.4,9.2,11,16.9s-2.5,5.9-3.8,8.5c-2.6,5-5.7,9.8-8.5,14.7-.3,3.2.3,6.9,0,10s-1.2,2.3-2.4,2.4c-3.5.3-7.6-.2-11.1,0-8,.5-7.9,11.7,0,12.2s13.7-.3,20.4,0c3,.2,5.6,2.2,6.8,5l.5,2.2v1.4c-.1.5-.2,1.1-.4,1.6-.7,2.5-2.9,4.7-5.5,5.3l-1.8.3h-54.8l-.6-.3c-3.1-5.5-6.5-10.8-9.4-16.4s-2.7-5.4-3.4-8.1-.2-1.1-.4-1.7c0-.5,0-1.1,0-1.6.6-8.6,8.9-14.6,17.3-12.5,7.2,1.8,12.1,9.4,9.8,16.7s-7.6,14.5-11.3,21.2-.3.5-.3.7h52.9c2.2,0,4.5-1.8,5.3-3.8,1.7-4.2-1.3-8.1-5.7-8.4-6.6-.4-13.7.3-20.4,0-5.1-.6-8.3-5.8-6.6-10.6s3.8-5,6.8-5.2,7.6.2,11.3,0c.7-.1,1-.5,1-1.2.2-3-.2-6.4,0-9.5-3-5.2-6.2-10.3-9-15.7s-4.1-7.8-3.9-11.4c.3-7,6.1-12.7,13-13.2h1.9ZM141.4,120.4h.2c3-5.4,6.4-10.6,9.1-16s4.3-8.9,1.2-14.2c-4.8-8.2-16.9-7.7-21.1.8s-.1,10,2.4,14.9c2.4,4.7,5.3,9.7,8.1,14.1s.1.2.2.4ZM102.8,127.7c-6-6.2-16.5-4.2-19.8,3.7-1.9,4.5-.5,7.6,1.4,11.6,2.8,5.9,6.4,11.6,9.7,17.2,3.4-5.8,7.1-11.5,9.9-17.6s1.5-3.3,1.9-4.9c.8-3.5-.7-7.5-3.1-10Z"/>
    <path class="st18" d="M100.6,129.3c6.4,6.1,1.7,16.7-7.1,16.1s-7.3-3-8.3-6.7c-2.7-9.2,8.5-16,15.4-9.4ZM99.3,141.6c3.8-3.6,2.9-9.9-1.7-12.2s-12.9,3-10.4,9.5,8.3,6.3,12.1,2.7Z"/>
    <path class="st0" d="M141.7,86.8c7.5.1,11.8,8.6,7.5,14.8-4.7,6.8-15.4,4.5-16.9-3.6-1.1-5.9,3.4-11.3,9.4-11.2ZM136.2,101.6c3.8,3.7,10.3,2.3,12.2-2.6,2.5-6.2-3.8-12.3-9.9-9.7s-6.1,8.5-2.3,12.3Z"/>
    <path class="st38" d="M93.9,131.6c.4,0,.8,0,1,.4.9,2.2,2,4.3,2.9,6.4s.5,1,.5,1.3c0,.6-.6,1-1.2.9-.9-.1-.9-1.7-1.3-1.8h-3.4c-.2,0-.5,1.2-.7,1.4-.6.9-2,.3-1.7-.7,1.1-2.3,2-4.8,3.2-7.1s.3-.7.7-.8ZM93.3,136.9h1.5c0,0,.3,0,.3-.1l-.9-1.9c-.1.3-1,1.9-.9,2.1Z"/>
    <path class="st34" d="M142,91.8c2.2.1,3.2,2.8,1.9,4.4,1.2,1.5.6,3.8-1.2,4.3s-2.8.3-3.4.1-.5-.2-.7-.5v-7.9c0-.2.3-.4.6-.5.6,0,2.2,0,2.9,0ZM141.9,93.6c-.5,0-1.1,0-1.6,0v1.6h1.7c.7,0,.9-1.5,0-1.6ZM140.3,98.8h1.6c.3,0,.7-.4.7-.7s-.3-.9-.6-.9h-1.7v1.6Z"/>
  </g>
</svg>