<?xml version="1.0" encoding="utf-8"?>
<!-- Generator: Adobe Illustrator 25.0.1, SVG Export Plug-In . SVG Version: 6.00 Build 0)  -->
<svg version="1.1" id="Layer_1" xmlns="http://www.w3.org/2000/svg" xmlns:xlink="http://www.w3.org/1999/xlink" x="0px" y="0px"
	 viewBox="0 0 45 45" style="enable-background:new 0 0 45 45;" xml:space="preserve">
<style type="text/css">
	.st0{fill:#FFFFFF;stroke:#7F7F80;stroke-miterlimit:10;}
	.st1{fill:#7F7F80;}
</style>
<circle class="st0" cx="22.5" cy="22.5" r="20.9"/>
<g>
	<path class="st1" d="M19.6,28.4c1.9,0.1,2.5-0.3,2.3-2.2c-0.3-3.2,0.5-2.7-2.8-3.9c-2-0.7-4.1-1.3-6.2-1.9c-0.2-0.1-0.6-0.2-0.8,0
		c-1.6,1.3-3.5,0.9-5.2,0.9c-1,0-2-0.1-2.9-0.2c-0.4-0.1-0.7-0.5-1-0.7c0.4-0.2,0.8-0.5,1.1-0.5C6,19.9,8,20,9.9,20
		c0.3,0,0.5-0.1,1.1-0.2c-0.6-0.3-0.9-0.6-1.3-0.8c-2.1-1-4.1-1.9-6.2-2.9c-0.2-0.1-0.6-0.5-0.5-0.6c0.1-0.3,0.4-0.5,0.7-0.6
		c0.1-0.1,0.4,0,0.6,0.1c0.7,0.2,1.4,0.4,2.1,0.8c3.9,2.3,8,4,12.4,5.1c1.1,0.3,2.1,0.7,3.1,1.3c0.5,0.2,1,0.8,1,1.2
		c0.2,1.3,0.3,2.6,0.2,3.9c-0.1,1.2-0.7,2.2-2.3,2.3c-1.1,0.1-2,0.3-2.9,1.1c-1.4,1.3-3.5,1-4.9-0.3c-0.3-0.3-0.9-0.6-1.4-0.6
		c-2.4,0-4.8,0-7.2,0.1c-0.2,0-0.4,0.1-0.5,0c-0.3-0.2-0.7-0.4-1-0.6c0.3-0.2,0.6-0.6,1-0.6c2.3-0.1,4.5-0.1,6.8-0.1
		c0.4,0,0.7,0,1.1,0c0.3-3.2,1.6-4.7,3.9-4.7C17.9,23.9,19.2,25.4,19.6,28.4z M15.8,25.2c-1.4-0.1-2.6,1-2.7,2.4
		c-0.1,1.4,1,2.6,2.4,2.7c1.4,0.1,2.6-1,2.7-2.4C18.3,26.5,17.2,25.3,15.8,25.2z"/>
	<path class="st1" d="M39.6,28.1c0.6,0,1.2-0.1,1.7,0c0.3,0.1,0.6,0.4,0.8,0.7c-0.3,0.2-0.5,0.4-0.8,0.6c-0.2,0.1-0.4,0-0.6,0
		c-0.9-0.2-1.5,0.1-2.2,0.9c-1.6,2-4.8,1.6-6.1-0.6c-0.3-0.6-0.6-0.8-1.3-0.9c-0.5-0.1-1-0.3-1.4-0.4c-1-0.4-1.7-1.2-1.5-2.4
		c0.3-1.8,0.8-3.6,1.2-5.4c0.1-0.3,0.3-0.6,0.6-0.8c3.1-3.3,7.1-4.1,11.3-4c0.3,0,0.5,0.4,0.8,0.6c-0.3,0.2-0.6,0.6-0.9,0.6
		c-1.9,0.3-3.7,0.3-5.6,0.7c-2,0.4-3.8,1.6-4.7,3.2c-0.9,1.5-1,3.6-1.3,5.5c0,0.2,0.3,0.6,0.6,0.7c0.5,0.2,1.1,0.4,1.6,0.6
		c1.1-3,2.4-4,4.4-3.8C38,24.1,39.2,25.5,39.6,28.1z M35.7,30.3c1.4,0,2.6-1.2,2.5-2.6c0-1.4-1.2-2.5-2.5-2.5
		c-1.4,0-2.6,1.1-2.6,2.5C33.1,29.2,34.2,30.4,35.7,30.3z"/>
	<path class="st1" d="M29.7,15c-0.7,0.4-1.4,0.8-2.1,1.2c-0.8,0.4-1.1,0.3-1.3-0.6c-0.1-0.8-0.3-1.7-0.4-2.8
		c-0.5,0.9-0.8,1.7-1.2,2.4c-0.5,1-0.8,1-1.5,0.3c-0.6-0.6-1.1-1.2-1.9-2c0.2,1.1,0.4,2,0.5,2.8c0.1,0.8-0.1,1.1-0.9,1
		c-0.9-0.1-1.7-0.3-2.7-0.5c0.7,0.7,1.4,1.3,1.9,2c0.2,0.3,0.2,0.7,0.2,1.1c-0.4-0.1-0.8,0-1-0.2c-1.2-1.1-2.4-2.2-3.5-3.3
		c-0.2-0.2-0.4-0.6-0.3-0.9c0.1-0.2,0.6-0.3,0.8-0.3c1.3,0.2,2.6,0.4,4.1,0.7c-0.3-1.3-0.5-2.5-0.7-3.7c-0.1-0.4,0.2-0.8,0.3-1.2
		c0.4,0.2,0.8,0.3,1.1,0.5c0.9,0.8,1.8,1.7,2.8,2.5c0.5-1,1-2.2,1.6-3.4c0.2-0.3,0.6-0.4,0.8-0.7c0.2,0.3,0.5,0.6,0.5,0.9
		c0.2,1.3,0.4,2.5,0.6,4c1-0.6,2-1.1,2.9-1.6c0.3-0.2,0.6-0.4,0.9-0.5c0.3-0.1,0.7-0.1,0.8,0.1c0.2,0.2,0.2,0.6,0.1,0.8
		c-0.8,1.5-1.6,3-2.5,4.5c-0.1,0.2-0.5,0.2-0.8,0.3c-0.1-0.3-0.3-0.7-0.2-0.9c0.4-0.8,0.8-1.6,1.3-2.4C29.8,15.1,29.8,15,29.7,15z"
		/>
	<path class="st1" d="M21.2,33.8c-0.5-0.5-0.8-0.7-1-1.1c-0.1-0.2-0.1-0.6-0.1-0.9c0.3,0,0.7-0.1,0.9,0c0.8,0.7,1.5,1.4,2.2,2.2
		c0.1,0.2,0.1,0.7-0.1,0.9c-0.6,0.7-1.3,1.4-2.1,2.1c-0.2,0.2-0.6,0.1-1,0.1c0-0.3,0-0.7,0.1-1c0.2-0.3,0.6-0.5,0.9-0.7
		c-0.1-0.1-0.1-0.2-0.2-0.3c-0.3,0-0.7,0-1,0c-3.5,0-6.9,0-10.4,0c-0.3,0-0.6,0.1-0.8,0c-0.3-0.1-0.5-0.4-0.6-0.7
		c0-0.1,0.3-0.5,0.6-0.5c0.3-0.1,0.6,0,0.9,0c3.4,0,6.8,0,10.2,0C20.2,33.8,20.6,33.8,21.2,33.8z"/>
</g>
</svg>
